<svg xmlns="http://www.w3.org/2000/svg" viewBox="0 0 800 600"><defs><style>.cls-1{fill:#f2e6d8;}.cls-2{fill:#aab9bf;}.cls-3{fill:#88aabf;}</style></defs><title>background</title><g id="Layer_2" data-name="Layer 2"><g id="Layer_4" data-name="Layer 4"><rect class="cls-1" x="780.25" y="216.39" width="9.87" height="9.84"/><path class="cls-1" d="M780.25,236.07h-9.88V216.39h-9.88v-9.83h9.88v-9.84h-9.88v-9.83h-9.87v-9.84h-9.88v-9.84H721v-9.83h-9.88v-9.84H691.36V137.7h-9.88v-9.83H671.6V118H651.85v9.84h9.88v9.83h9.87v9.84h-9.87V137.7H642v-9.83H612.35v9.83h-9.88v-9.83h9.88V118H513.58V108.2H474.07V98.36H484V78.69H454.32V68.85H404.94V59H365.43V49.18h-39.5V39.34H296.3v9.84h19.75V59h29.63v9.83h39.51v9.84H365.43V98.36h9.88v9.84h19.75V118h9.88v9.84h9.87V118h9.88v9.84h19.75V118h-9.87V108.2H414.81V98.36h29.63v9.84h9.88V118h9.88v9.84h9.87v9.83H484v9.84H503.7v19.67h9.88v9.84h9.88v9.84h19.75v9.83h39.51v-9.83H553.09v-9.84H533.33v-9.84h19.76v9.84H563v-9.84h9.88v9.84h9.88v-9.84h9.87v19.68h9.88v9.83h19.75v-9.83h9.88v9.83H642v9.84H632.1v9.83H642v9.84h19.75v9.84h39.5v9.83H721v-9.83h-9.88v-9.84H691.36v-9.84h-9.88v-9.83H661.73v-9.84h-9.88v-9.83H642v-9.84H622.22v-9.84h69.14v39.35h19.75v-9.84h19.75v9.84h9.88v9.83h9.88v9.84h-9.88v9.84h9.88v9.83H730.86v19.67H711.11v9.84h39.51v-9.84h-9.88v-9.83h39.51v9.83h9.87V245.9h-9.87ZM563,157.38h-9.87v-9.84H513.58V137.7H503.7v-9.83H484V118H503.7v9.84h69.14v9.83H553.09v9.84h19.75v9.84Zm29.63-9.84h19.76v9.84H592.59Zm39.51,9.84h-9.88v-9.84H642v9.84Z"/><rect class="cls-1" x="770.37" y="186.89" width="9.88" height="9.83"/><polygon class="cls-1" points="730.86 216.39 730.86 206.56 720.99 206.56 711.11 206.56 711.11 216.39 720.99 216.39 720.99 226.23 730.86 226.23 740.74 226.23 740.74 216.39 730.86 216.39"/><polygon class="cls-1" points="681.48 255.74 681.48 265.57 691.36 265.57 691.36 275.41 701.23 275.41 701.23 265.57 701.23 255.74 691.36 255.74 681.48 255.74"/><rect class="cls-1" x="641.98" y="255.74" width="9.87" height="9.83"/><polygon class="cls-1" points="641.98 108.2 632.1 108.2 622.22 108.2 622.22 118.03 632.1 118.03 641.98 118.03 651.85 118.03 651.85 108.2 641.98 108.2"/><polygon class="cls-1" points="641.98 236.07 632.1 236.07 622.22 236.07 622.22 245.9 632.1 245.9 641.98 245.9 641.98 236.07"/><rect class="cls-1" x="622.22" y="196.72" width="9.88" height="9.84"/><rect class="cls-1" x="612.35" y="226.23" width="9.87" height="9.84"/><polygon class="cls-1" points="612.35 98.36 602.47 98.36 592.59 98.36 592.59 108.2 602.47 108.2 612.35 108.2 622.22 108.2 622.22 98.36 612.35 98.36"/><polygon class="cls-1" points="602.47 216.39 592.59 216.39 592.59 206.56 582.72 206.56 572.84 206.56 562.96 206.56 553.09 206.56 553.09 216.39 562.96 216.39 572.84 216.39 582.72 216.39 582.72 226.23 592.59 226.23 602.47 226.23 612.35 226.23 612.35 216.39 602.47 216.39"/><rect class="cls-1" x="533.33" y="196.72" width="9.88" height="9.84"/><polygon class="cls-1" points="513.58 98.36 513.58 88.52 503.7 88.52 493.83 88.52 493.83 98.36 503.7 98.36 513.58 98.36"/><rect class="cls-1" x="493.83" y="196.72" width="9.87" height="9.84"/><polygon class="cls-1" points="454.32 147.54 444.44 147.54 434.57 147.54 424.69 147.54 414.81 147.54 414.81 137.7 404.94 137.7 395.06 137.7 385.19 137.7 385.19 127.87 375.31 127.87 375.31 137.7 375.31 147.54 385.19 147.54 395.06 147.54 404.94 147.54 404.94 157.38 414.81 157.38 424.69 157.38 434.57 157.38 444.44 157.38 444.44 167.21 454.32 167.21 464.2 167.21 464.2 157.38 454.32 157.38 454.32 147.54"/><rect class="cls-1" x="444.44" y="127.87" width="9.88" height="9.83"/><rect class="cls-1" x="365.43" y="118.03" width="9.88" height="9.84"/><rect class="cls-1" x="355.56" y="108.2" width="9.87" height="9.83"/><polygon class="cls-1" points="316.05 78.69 306.17 78.69 306.17 88.52 316.05 88.52 325.93 88.52 335.8 88.52 335.8 78.69 325.93 78.69 316.05 78.69"/><polygon class="cls-1" points="276.54 108.2 266.67 108.2 256.79 108.2 246.91 108.2 246.91 98.36 237.04 98.36 227.16 98.36 227.16 88.52 217.28 88.52 217.28 78.69 207.41 78.69 207.41 68.85 207.41 59.02 197.53 59.02 187.65 59.02 177.78 59.02 177.78 68.85 187.65 68.85 197.53 68.85 197.53 78.69 197.53 88.52 207.41 88.52 207.41 98.36 217.28 98.36 217.28 108.2 217.28 118.03 227.16 118.03 237.04 118.03 237.04 127.87 246.91 127.87 256.79 127.87 256.79 137.7 266.67 137.7 276.54 137.7 276.54 147.54 286.42 147.54 296.3 147.54 296.3 137.7 286.42 137.7 286.42 127.87 276.54 127.87 276.54 118.03 286.42 118.03 296.3 118.03 296.3 108.2 286.42 108.2 276.54 108.2"/><rect class="cls-1" x="197.53" y="98.36" width="9.88" height="9.84"/><rect class="cls-1" x="167.9" y="216.39" width="9.88" height="9.84"/><rect class="cls-1" x="167.9" y="196.72" width="9.88" height="9.84"/><polygon class="cls-1" points="167.9 118.03 158.02 118.03 148.15 118.03 148.15 127.87 148.15 137.7 158.02 137.7 158.02 127.87 167.9 127.87 177.78 127.87 177.78 118.03 177.78 108.2 167.9 108.2 167.9 118.03"/><rect class="cls-1" x="158.02" y="186.89" width="9.88" height="9.83"/><polygon class="cls-1" points="167.9 78.69 158.02 78.69 148.15 78.69 148.15 88.52 158.02 88.52 158.02 98.36 167.9 98.36 177.78 98.36 177.78 88.52 167.9 88.52 167.9 78.69"/><rect class="cls-1" x="148.15" y="177.05" width="9.87" height="9.84"/><polygon class="cls-1" points="138.27 167.21 128.4 167.21 128.4 177.05 138.27 177.05 148.15 177.05 148.15 167.21 138.27 167.21"/><polygon class="cls-1" points="128.4 285.25 118.52 285.25 118.52 275.41 108.64 275.41 108.64 265.57 98.77 265.57 98.77 275.41 98.77 285.25 88.89 285.25 88.89 295.08 98.77 295.08 108.64 295.08 118.52 295.08 128.4 295.08 138.27 295.08 148.15 295.08 148.15 285.25 138.27 285.25 128.4 285.25"/><polygon class="cls-1" points="128.4 137.7 128.4 147.54 138.27 147.54 148.15 147.54 148.15 137.7 138.27 137.7 128.4 137.7"/><rect class="cls-1" x="118.52" y="157.38" width="9.88" height="9.83"/><polygon class="cls-1" points="118.52 216.39 128.4 216.39 128.4 206.56 118.52 206.56 108.64 206.56 108.64 216.39 118.52 216.39"/><rect class="cls-1" x="98.77" y="226.23" width="9.87" height="9.84"/><polygon class="cls-1" points="108.64 157.38 108.64 147.54 98.77 147.54 88.89 147.54 88.89 157.38 98.77 157.38 108.64 157.38"/><polygon class="cls-1" points="98.77 206.56 108.64 206.56 108.64 196.72 98.77 196.72 88.89 196.72 88.89 206.56 98.77 206.56"/><rect class="cls-1" x="79.01" y="255.74" width="9.88" height="9.83"/><polygon class="cls-1" points="88.89 245.9 88.89 236.07 79.01 236.07 79.01 226.23 69.14 226.23 69.14 216.39 59.26 216.39 49.38 216.39 49.38 206.56 39.51 206.56 29.63 206.56 19.75 206.56 19.75 196.72 9.88 196.72 9.88 206.56 9.88 216.39 19.75 216.39 19.75 226.23 29.63 226.23 39.51 226.23 39.51 236.07 49.38 236.07 49.38 245.9 59.26 245.9 59.26 255.74 69.14 255.74 79.01 255.74 79.01 245.9 88.89 245.9"/><polygon class="cls-1" points="79.01 196.72 88.89 196.72 88.89 186.89 79.01 186.89 69.14 186.89 69.14 196.72 79.01 196.72"/><rect class="cls-1" x="39.51" y="255.74" width="9.87" height="9.83"/><rect class="cls-1" x="29.63" y="245.9" width="9.88" height="9.84"/><polygon class="cls-1" points="19.75 245.9 29.63 245.9 29.63 236.07 19.75 236.07 9.88 236.07 0 236.07 0 245.9 9.88 245.9 9.88 255.74 9.88 265.57 19.75 265.57 29.63 265.57 29.63 255.74 19.75 255.74 19.75 245.9"/><polygon class="cls-1" points="19.75 186.89 29.63 186.89 29.63 196.72 39.51 196.72 49.38 196.72 49.38 186.89 59.26 186.89 69.14 186.89 69.14 177.05 59.26 177.05 49.38 177.05 39.51 177.05 29.63 177.05 19.75 177.05 9.88 177.05 0 177.05 0 186.89 0 196.72 9.88 196.72 9.88 186.89 19.75 186.89"/><polygon class="cls-1" points="19.75 147.54 19.75 157.38 29.63 157.38 39.51 157.38 49.38 157.38 49.38 147.54 39.51 147.54 29.63 147.54 29.63 137.7 19.75 137.7 9.88 137.7 9.88 127.87 0 127.87 0 137.7 0 147.54 9.88 147.54 19.75 147.54"/><polygon class="cls-2" points="780.25 314.75 770.37 314.75 770.37 324.59 760.49 324.59 750.62 324.59 750.62 334.43 750.62 344.26 740.74 344.26 740.74 354.1 750.62 354.1 760.49 354.1 760.49 344.26 760.49 334.43 770.37 334.43 780.25 334.43 780.25 324.59 790.12 324.59 800 324.59 800 314.75 790.12 314.75 780.25 314.75"/><polygon class="cls-2" points="790.12 216.39 800 216.39 800 206.56 790.12 206.56 790.12 196.72 780.25 196.72 770.37 196.72 770.37 206.56 760.49 206.56 760.49 216.39 770.37 216.39 770.37 226.23 770.37 236.07 780.25 236.07 780.25 245.9 790.12 245.9 790.12 255.74 790.12 265.57 780.25 265.57 770.37 265.57 770.37 255.74 760.49 255.74 750.62 255.74 740.74 255.74 740.74 265.57 750.62 265.57 750.62 275.41 740.74 275.41 730.86 275.41 720.99 275.41 711.11 275.41 701.23 275.41 691.36 275.41 691.36 265.57 681.48 265.57 681.48 255.74 691.36 255.74 701.23 255.74 701.23 265.57 711.11 265.57 720.99 265.57 730.86 265.57 730.86 255.74 730.86 245.9 740.74 245.9 750.62 245.9 750.62 236.07 740.74 236.07 730.86 236.07 730.86 226.23 720.99 226.23 711.11 226.23 711.11 236.07 720.99 236.07 720.99 245.9 711.11 245.9 701.23 245.9 701.23 236.07 691.36 236.07 681.48 236.07 671.6 236.07 661.73 236.07 661.73 226.23 651.85 226.23 641.98 226.23 641.98 216.39 632.1 216.39 632.1 206.56 622.22 206.56 622.22 196.72 612.35 196.72 602.47 196.72 592.59 196.72 582.72 196.72 572.84 196.72 562.96 196.72 553.09 196.72 543.21 196.72 543.21 206.56 533.33 206.56 533.33 196.72 523.46 196.72 523.46 186.89 523.46 177.05 513.58 177.05 513.58 167.21 503.7 167.21 503.7 157.38 503.7 147.54 493.83 147.54 483.95 147.54 483.95 137.7 474.07 137.7 474.07 127.87 464.2 127.87 464.2 118.03 454.32 118.03 454.32 127.87 454.32 137.7 444.44 137.7 434.57 137.7 424.69 137.7 424.69 127.87 414.81 127.87 404.94 127.87 404.94 118.03 395.06 118.03 395.06 108.2 385.19 108.2 375.31 108.2 375.31 98.36 365.43 98.36 365.43 88.52 365.43 78.69 375.31 78.69 385.19 78.69 385.19 68.85 375.31 68.85 365.43 68.85 355.56 68.85 345.68 68.85 345.68 59.02 335.8 59.02 325.93 59.02 316.05 59.02 306.17 59.02 306.17 68.85 306.17 78.69 316.05 78.69 325.93 78.69 335.8 78.69 335.8 88.52 325.93 88.52 316.05 88.52 316.05 98.36 325.93 98.36 325.93 108.2 335.8 108.2 335.8 118.03 345.68 118.03 345.68 127.87 355.56 127.87 355.56 118.03 355.56 108.2 365.43 108.2 365.43 118.03 375.31 118.03 375.31 127.87 385.19 127.87 385.19 137.7 395.06 137.7 404.94 137.7 414.81 137.7 414.81 147.54 424.69 147.54 434.57 147.54 444.44 147.54 454.32 147.54 454.32 157.38 464.2 157.38 464.2 167.21 464.2 177.05 474.07 177.05 474.07 186.89 483.95 186.89 493.83 186.89 493.83 196.72 503.7 196.72 503.7 206.56 513.58 206.56 523.46 206.56 523.46 216.39 533.33 216.39 543.21 216.39 553.09 216.39 553.09 206.56 562.96 206.56 572.84 206.56 582.72 206.56 592.59 206.56 592.59 216.39 602.47 216.39 612.35 216.39 612.35 226.23 622.22 226.23 632.1 226.23 632.1 236.07 641.98 236.07 641.98 245.9 632.1 245.9 622.22 245.9 622.22 255.74 632.1 255.74 641.98 255.74 651.85 255.74 651.85 265.57 651.85 275.41 661.73 275.41 671.6 275.41 671.6 285.25 681.48 285.25 681.48 295.08 691.36 295.08 701.23 295.08 701.23 304.92 711.11 304.92 720.99 304.92 720.99 295.08 730.86 295.08 740.74 295.08 740.74 285.25 750.62 285.25 760.49 285.25 770.37 285.25 770.37 275.41 780.25 275.41 780.25 285.25 790.12 285.25 800 285.25 800 275.41 800 265.57 800 255.74 800 245.9 800 236.07 790.12 236.07 790.12 226.23 780.25 226.23 780.25 216.39 790.12 216.39"/><polygon class="cls-2" points="770.37 177.05 760.49 177.05 760.49 167.21 750.62 167.21 750.62 157.38 740.74 157.38 730.86 157.38 730.86 167.21 740.74 167.21 740.74 177.05 750.62 177.05 750.62 186.89 760.49 186.89 760.49 196.72 770.37 196.72 770.37 186.89 770.37 177.05"/><polygon class="cls-2" points="730.86 344.26 720.99 344.26 711.11 344.26 711.11 334.43 701.23 334.43 701.23 324.59 691.36 324.59 681.48 324.59 671.6 324.59 671.6 334.43 681.48 334.43 691.36 334.43 691.36 344.26 701.23 344.26 701.23 354.1 691.36 354.1 681.48 354.1 671.6 354.1 671.6 363.93 681.48 363.93 691.36 363.93 701.23 363.93 711.11 363.93 720.99 363.93 730.86 363.93 730.86 373.77 740.74 373.77 750.62 373.77 750.62 383.61 760.49 383.61 770.37 383.61 780.25 383.61 780.25 373.77 780.25 363.93 770.37 363.93 760.49 363.93 750.62 363.93 740.74 363.93 740.74 354.1 730.86 354.1 730.86 344.26"/><polygon class="cls-2" points="720.99 147.54 711.11 147.54 711.11 157.38 720.99 157.38 730.86 157.38 730.86 147.54 720.99 147.54"/><polygon class="cls-2" points="701.23 216.39 701.23 206.56 691.36 206.56 691.36 196.72 691.36 186.89 691.36 177.05 681.48 177.05 681.48 167.21 671.6 167.21 661.73 167.21 651.85 167.21 641.98 167.21 632.1 167.21 622.22 167.21 622.22 177.05 632.1 177.05 641.98 177.05 641.98 186.89 651.85 186.89 651.85 196.72 661.73 196.72 671.6 196.72 671.6 206.56 681.48 206.56 681.48 216.39 691.36 216.39 691.36 226.23 701.23 226.23 711.11 226.23 711.11 216.39 701.23 216.39"/><rect class="cls-2" x="661.73" y="137.7" width="9.87" height="9.84"/><rect class="cls-2" x="651.85" y="127.87" width="9.88" height="9.83"/><rect class="cls-2" x="651.85" y="108.2" width="9.88" height="9.83"/><polygon class="cls-2" points="612.35 236.07 612.35 226.23 602.47 226.23 592.59 226.23 582.72 226.23 582.72 216.39 572.84 216.39 562.96 216.39 553.09 216.39 553.09 226.23 543.21 226.23 533.33 226.23 523.46 226.23 513.58 226.23 513.58 236.07 513.58 245.9 503.7 245.9 493.83 245.9 493.83 255.74 493.83 265.57 503.7 265.57 503.7 255.74 513.58 255.74 523.46 255.74 523.46 245.9 533.33 245.9 543.21 245.9 553.09 245.9 562.96 245.9 562.96 236.07 572.84 236.07 582.72 236.07 592.59 236.07 602.47 236.07 602.47 245.9 612.35 245.9 622.22 245.9 622.22 236.07 612.35 236.07"/><polygon class="cls-2" points="622.22 127.87 632.1 127.87 641.98 127.87 651.85 127.87 651.85 118.03 641.98 118.03 632.1 118.03 622.22 118.03 612.35 118.03 612.35 127.87 622.22 127.87"/><polygon class="cls-2" points="444.44 108.2 444.44 98.36 434.57 98.36 424.69 98.36 414.81 98.36 414.81 108.2 424.69 108.2 434.57 108.2 434.57 118.03 444.44 118.03 454.32 118.03 454.32 108.2 444.44 108.2"/><polygon class="cls-2" points="365.43 295.08 355.56 295.08 345.68 295.08 335.8 295.08 325.93 295.08 325.93 285.25 316.05 285.25 306.17 285.25 306.17 275.41 296.3 275.41 286.42 275.41 286.42 265.57 276.54 265.57 276.54 275.41 266.67 275.41 266.67 265.57 256.79 265.57 246.91 265.57 237.04 265.57 227.16 265.57 217.28 265.57 207.41 265.57 207.41 275.41 217.28 275.41 227.16 275.41 237.04 275.41 246.91 275.41 256.79 275.41 256.79 285.25 266.67 285.25 276.54 285.25 276.54 295.08 286.42 295.08 286.42 304.92 296.3 304.92 306.17 304.92 316.05 304.92 325.93 304.92 335.8 304.92 345.68 304.92 355.56 304.92 365.43 304.92 375.31 304.92 385.19 304.92 385.19 295.08 375.31 295.08 365.43 295.08"/><polygon class="cls-2" points="316.05 363.93 306.17 363.93 306.17 354.1 296.3 354.1 286.42 354.1 286.42 344.26 276.54 344.26 276.54 334.43 266.67 334.43 256.79 334.43 256.79 324.59 266.67 324.59 276.54 324.59 276.54 314.75 266.67 314.75 256.79 314.75 246.91 314.75 246.91 304.92 237.04 304.92 237.04 295.08 227.16 295.08 217.28 295.08 217.28 304.92 207.41 304.92 207.41 295.08 217.28 295.08 217.28 285.25 207.41 285.25 197.53 285.25 187.65 285.25 177.78 285.25 167.9 285.25 167.9 295.08 158.02 295.08 148.15 295.08 138.27 295.08 128.4 295.08 118.52 295.08 108.64 295.08 98.77 295.08 88.89 295.08 88.89 285.25 98.77 285.25 98.77 275.41 98.77 265.57 88.89 265.57 79.01 265.57 79.01 255.74 69.14 255.74 59.26 255.74 59.26 245.9 49.38 245.9 49.38 236.07 39.51 236.07 39.51 226.23 29.63 226.23 29.63 236.07 29.63 245.9 39.51 245.9 39.51 255.74 49.38 255.74 49.38 265.57 59.26 265.57 59.26 275.41 49.38 275.41 49.38 265.57 39.51 265.57 29.63 265.57 29.63 275.41 39.51 275.41 39.51 285.25 49.38 285.25 59.26 285.25 59.26 295.08 69.14 295.08 79.01 295.08 79.01 304.92 88.89 304.92 98.77 304.92 108.64 304.92 108.64 314.75 118.52 314.75 128.4 314.75 138.27 314.75 148.15 314.75 158.02 314.75 158.02 304.92 167.9 304.92 177.78 304.92 187.65 304.92 197.53 304.92 197.53 314.75 207.41 314.75 217.28 314.75 217.28 324.59 227.16 324.59 237.04 324.59 237.04 334.43 246.91 334.43 246.91 344.26 256.79 344.26 266.67 344.26 266.67 354.1 276.54 354.1 276.54 363.93 286.42 363.93 296.3 363.93 296.3 373.77 306.17 373.77 316.05 373.77 325.93 373.77 335.8 373.77 335.8 363.93 325.93 363.93 316.05 363.93"/><polygon class="cls-2" points="306.17 147.54 306.17 137.7 306.17 127.87 296.3 127.87 286.42 127.87 286.42 137.7 296.3 137.7 296.3 147.54 306.17 147.54"/><path class="cls-2" d="M296.3,39.34h29.63v9.84h39.5V59h39.51v9.83h49.38v9.84H484V108.2h39.51V98.36h9.87v9.84h19.76V118h59.26V108.2H563V98.36h59.26v9.84h9.88V98.36h69.13V118h9.88V78.69H691.36v9.83h-158V78.69h-39.5V68.85H474.07V59H444.44V49.18h-39.5V39.34H335.8V29.51H276.54v9.83H296.3ZM503.7,88.52h9.88v9.84H493.83V88.52Z"/><polygon class="cls-2" points="286.42 334.43 296.3 334.43 306.17 334.43 306.17 324.59 296.3 324.59 286.42 324.59 276.54 324.59 276.54 334.43 286.42 334.43"/><polygon class="cls-2" points="187.65 118.03 197.53 118.03 197.53 127.87 207.41 127.87 207.41 137.7 217.28 137.7 217.28 147.54 227.16 147.54 227.16 157.38 237.04 157.38 237.04 167.21 246.91 167.21 256.79 167.21 266.67 167.21 266.67 157.38 276.54 157.38 286.42 157.38 286.42 147.54 276.54 147.54 266.67 147.54 256.79 147.54 256.79 157.38 246.91 157.38 246.91 147.54 256.79 147.54 256.79 137.7 246.91 137.7 237.04 137.7 237.04 127.87 237.04 118.03 227.16 118.03 217.28 118.03 217.28 108.2 217.28 98.36 207.41 98.36 207.41 108.2 197.53 108.2 197.53 98.36 197.53 88.52 187.65 88.52 177.78 88.52 177.78 98.36 177.78 108.2 177.78 118.03 177.78 127.87 187.65 127.87 187.65 118.03"/><polygon class="cls-2" points="177.78 137.7 177.78 127.87 167.9 127.87 158.02 127.87 158.02 137.7 167.9 137.7 177.78 137.7"/><rect class="cls-2" x="148.15" y="137.7" width="9.87" height="9.84"/><rect class="cls-2" x="128.4" y="147.54" width="9.87" height="9.84"/><polygon class="cls-2" points="118.52 167.21 118.52 157.38 108.64 157.38 98.77 157.38 88.89 157.38 88.89 147.54 98.77 147.54 108.64 147.54 118.52 147.54 128.4 147.54 128.4 137.7 138.27 137.7 148.15 137.7 148.15 127.87 148.15 118.03 158.02 118.03 158.02 108.2 148.15 108.2 138.27 108.2 138.27 118.03 138.27 127.87 128.4 127.87 118.52 127.87 118.52 137.7 108.64 137.7 98.77 137.7 88.89 137.7 79.01 137.7 69.14 137.7 59.26 137.7 49.38 137.7 49.38 127.87 39.51 127.87 29.63 127.87 29.63 137.7 39.51 137.7 39.51 147.54 49.38 147.54 49.38 157.38 59.26 157.38 69.14 157.38 79.01 157.38 79.01 167.21 88.89 167.21 98.77 167.21 108.64 167.21 108.64 177.05 118.52 177.05 128.4 177.05 128.4 167.21 118.52 167.21"/><polygon class="cls-2" points="29.63 206.56 39.51 206.56 49.38 206.56 49.38 216.39 59.26 216.39 69.14 216.39 69.14 226.23 79.01 226.23 79.01 236.07 88.89 236.07 88.89 245.9 98.77 245.9 98.77 236.07 98.77 226.23 108.64 226.23 118.52 226.23 128.4 226.23 138.27 226.23 148.15 226.23 158.02 226.23 167.9 226.23 167.9 216.39 177.78 216.39 177.78 226.23 187.65 226.23 197.53 226.23 197.53 216.39 187.65 216.39 187.65 206.56 177.78 206.56 167.9 206.56 167.9 196.72 158.02 196.72 158.02 186.89 148.15 186.89 148.15 177.05 138.27 177.05 128.4 177.05 128.4 186.89 138.27 186.89 138.27 196.72 148.15 196.72 148.15 206.56 158.02 206.56 158.02 216.39 148.15 216.39 138.27 216.39 128.4 216.39 118.52 216.39 108.64 216.39 98.77 216.39 88.89 216.39 88.89 206.56 79.01 206.56 69.14 206.56 69.14 196.72 59.26 196.72 49.38 196.72 39.51 196.72 29.63 196.72 29.63 186.89 19.75 186.89 9.88 186.89 9.88 196.72 19.75 196.72 19.75 206.56 29.63 206.56"/><polygon class="cls-2" points="9.88 29.51 19.75 29.51 29.63 29.51 39.51 29.51 39.51 39.34 49.38 39.34 49.38 49.18 59.26 49.18 69.14 49.18 69.14 59.02 79.01 59.02 79.01 68.85 88.89 68.85 98.77 68.85 108.64 68.85 118.52 68.85 128.4 68.85 128.4 59.02 118.52 59.02 108.64 59.02 108.64 49.18 98.77 49.18 88.89 49.18 79.01 49.18 79.01 39.34 69.14 39.34 59.26 39.34 59.26 29.51 49.38 29.51 49.38 19.67 39.51 19.67 39.51 9.84 29.63 9.84 19.75 9.84 9.88 9.84 0 9.84 0 19.67 9.88 19.67 9.88 29.51"/><polygon class="cls-3" points="790.12 226.23 790.12 236.07 800 236.07 800 226.23 800 216.39 790.12 216.39 790.12 226.23"/><path class="cls-3" d="M790.12,0H0V9.84H39.51v9.83h9.87v9.84h9.88v9.83H79v9.84h29.63V59H128.4v9.83H79V59H69.14V49.18H49.38V39.34H39.51V29.51H9.88V19.67H0v108.2H9.88v9.83H29.63v-9.83H49.38v9.83h69.14v-9.83h19.75V108.2H158V118h9.88V108.2h9.88V98.36H158V88.52h-9.87V78.69H167.9v9.83h29.63V68.85H177.78V59h29.63V78.69h9.87v9.83h9.88v9.84h19.75v9.84H296.3V118H276.54v9.84h29.63v19.67H286.42v9.84H266.67v9.83H237v-9.83h-9.88v-9.84h-9.88V137.7h-9.87v-9.83h-9.88V118h-9.88v9.84h-9.87v9.83H158v9.84H138.27v9.84H128.4v9.83h19.75v9.84H158v9.84h9.88v9.83h9.88v9.84h9.87v9.83h9.88v9.84H108.64v9.84H98.77v9.83H79v9.84h9.88v9.83h19.75v9.84h9.88v9.84h29.63v9.83H167.9v-9.83h49.38v9.83H237v9.84h9.87v9.83h29.63v9.84h29.63v9.84H276.54v9.83h9.88v9.84h19.75v9.83H335.8v9.84H296.3v-9.84H276.54V354.1h-9.87v-9.84H246.91v-9.83H237v-9.84H217.28v-9.84H197.53v-9.83H158v9.83H108.64v-9.83H79v-9.84H59.26v-9.83H39.51v-9.84H29.63v-9.84H9.88V245.9H0V600H800V324.59H780.25v9.84H760.49V354.1H740.74v9.83h39.51v19.68H750.62v-9.84H730.86v-9.84H671.6V354.1h29.63v-9.84h-9.87v-9.83H671.6v-9.84h29.63v9.84h9.88v9.83h19.75v9.84h9.88v-9.84h9.88V324.59h19.75v-9.84H800v-29.5H780.25v-9.84h-9.88v9.84H740.74v9.83H721v9.84H701.23v-9.84H681.48v-9.83H671.6v-9.84H651.85v-9.84H642v-9.83H622.22V245.9H602.47v-9.83H563v9.83h-39.5v9.84H503.7v9.83h-9.87V245.9h19.75V226.23h39.51v-9.84H523.46v-9.83H493.83V186.89H474.07v-9.84H464.2v-9.84H444.44v-9.83h-39.5v-9.84H375.31V127.87h-9.88V118h-9.87v9.84h-9.88V118H335.8V108.2h-9.87V98.36h-9.88V88.52h-9.88V59h9.88V49.18H296.3V39.34H276.54V29.51H335.8v9.83h69.14v9.84h39.5V59h29.63v9.83h19.76v9.84h39.5v9.83h158V78.69h19.75V118h-9.88V98.36H632.1v9.84h29.63V118h9.87v9.84h9.88v9.83h9.88v9.84h39.5v9.84h19.76v9.83h9.87v9.84h9.88v9.84h9.88v9.83h9.87v9.84H800V0ZM207.41,275.41v-9.84h59.26v9.84h9.87v-9.84h9.88v9.84h19.75v9.84h19.76v9.83h59.26v9.84H286.42v-9.84h-9.88v-9.83H256.79v-9.84H207.41Z"/><rect class="cls-3" x="770.37" y="255.74" width="9.88" height="9.83"/><rect class="cls-3" x="740.74" y="216.39" width="9.88" height="9.84"/><rect class="cls-3" x="730.86" y="226.23" width="9.88" height="9.84"/><rect class="cls-3" x="730.86" y="206.56" width="9.88" height="9.83"/><polygon class="cls-3" points="720.99 196.72 711.11 196.72 711.11 206.56 720.99 206.56 730.86 206.56 730.86 196.72 720.99 196.72"/><rect class="cls-3" x="720.99" y="157.38" width="9.87" height="9.83"/><rect class="cls-3" x="711.11" y="216.39" width="9.88" height="9.84"/><rect class="cls-3" x="701.23" y="265.57" width="9.88" height="9.84"/><rect class="cls-3" x="701.23" y="206.56" width="9.88" height="9.83"/><rect class="cls-3" x="681.48" y="167.21" width="9.88" height="9.84"/><rect class="cls-3" x="661.73" y="196.72" width="9.87" height="9.84"/><rect class="cls-3" x="641.98" y="127.87" width="9.87" height="9.83"/><rect class="cls-3" x="632.1" y="196.72" width="9.88" height="9.84"/><polygon class="cls-3" points="641.98 147.54 632.1 147.54 622.22 147.54 622.22 157.38 632.1 157.38 641.98 157.38 641.98 147.54"/><rect class="cls-3" x="622.22" y="226.23" width="9.88" height="9.84"/><rect class="cls-3" x="622.22" y="186.89" width="9.88" height="9.83"/><rect class="cls-3" x="612.35" y="108.2" width="9.87" height="9.83"/><polygon class="cls-3" points="612.35 157.38 612.35 147.54 602.47 147.54 592.59 147.54 592.59 157.38 602.47 157.38 612.35 157.38"/><rect class="cls-3" x="602.47" y="127.87" width="9.88" height="9.83"/><polygon class="cls-3" points="592.59 196.72 602.47 196.72 602.47 186.89 592.59 186.89 592.59 177.05 592.59 167.21 582.72 167.21 582.72 177.05 572.84 177.05 572.84 167.21 562.96 167.21 562.96 177.05 553.09 177.05 553.09 186.89 562.96 186.89 572.84 186.89 582.72 186.89 582.72 196.72 592.59 196.72"/><polygon class="cls-3" points="582.72 108.2 592.59 108.2 592.59 98.36 582.72 98.36 572.84 98.36 562.96 98.36 562.96 108.2 572.84 108.2 582.72 108.2"/><polygon class="cls-3" points="562.96 157.38 572.84 157.38 572.84 147.54 562.96 147.54 553.09 147.54 553.09 157.38 562.96 157.38"/><polygon class="cls-3" points="543.21 167.21 533.33 167.21 533.33 177.05 543.21 177.05 553.09 177.05 553.09 167.21 543.21 167.21"/><polygon class="cls-3" points="543.21 196.72 543.21 186.89 533.33 186.89 523.46 186.89 523.46 196.72 533.33 196.72 543.21 196.72"/><polygon class="cls-3" points="523.46 98.36 523.46 108.2 513.58 108.2 513.58 118.03 523.46 118.03 533.33 118.03 543.21 118.03 553.09 118.03 553.09 108.2 543.21 108.2 533.33 108.2 533.33 98.36 523.46 98.36"/><polygon class="cls-3" points="523.46 147.54 533.33 147.54 543.21 147.54 553.09 147.54 553.09 137.7 562.96 137.7 572.84 137.7 572.84 127.87 562.96 127.87 553.09 127.87 543.21 127.87 533.33 127.87 523.46 127.87 513.58 127.87 503.7 127.87 503.7 137.7 513.58 137.7 513.58 147.54 523.46 147.54"/><polygon class="cls-3" points="493.83 118.03 483.95 118.03 483.95 127.87 493.83 127.87 503.7 127.87 503.7 118.03 493.83 118.03"/><rect class="cls-3" x="474.07" y="98.36" width="9.88" height="9.84"/><rect class="cls-3" x="444.44" y="118.03" width="9.88" height="9.84"/><polygon class="cls-3" points="434.57 137.7 444.44 137.7 444.44 127.87 434.57 127.87 424.69 127.87 424.69 137.7 434.57 137.7"/><rect class="cls-3" x="414.81" y="118.03" width="9.88" height="9.84"/><polygon class="cls-3" points="266.67 324.59 256.79 324.59 256.79 334.43 266.67 334.43 276.54 334.43 276.54 324.59 266.67 324.59"/><polygon class="cls-3" points="266.67 147.54 276.54 147.54 276.54 137.7 266.67 137.7 256.79 137.7 256.79 147.54 266.67 147.54"/><rect class="cls-3" x="246.91" y="147.54" width="9.88" height="9.84"/><polygon class="cls-3" points="246.91 127.87 237.04 127.87 237.04 137.7 246.91 137.7 256.79 137.7 256.79 127.87 246.91 127.87"/><rect class="cls-3" x="207.41" y="295.08" width="9.87" height="9.84"/><rect class="cls-3" x="197.53" y="88.52" width="9.88" height="9.84"/><polygon class="cls-3" points="118.52 147.54 108.64 147.54 108.64 157.38 118.52 157.38 128.4 157.38 128.4 147.54 118.52 147.54"/><polygon class="cls-3" points="88.89 206.56 88.89 216.39 98.77 216.39 108.64 216.39 108.64 206.56 98.77 206.56 88.89 206.56"/><polygon class="cls-3" points="79.01 196.72 69.14 196.72 69.14 206.56 79.01 206.56 88.89 206.56 88.89 196.72 79.01 196.72"/><polygon class="cls-3" points="59.26 186.89 49.38 186.89 49.38 196.72 59.26 196.72 69.14 196.72 69.14 186.89 59.26 186.89"/><rect class="cls-3" x="49.38" y="265.57" width="9.88" height="9.84"/><rect class="cls-3" x="29.63" y="255.74" width="9.88" height="9.83"/><rect class="cls-3" x="29.63" y="137.7" width="9.88" height="9.84"/><rect class="cls-3" x="19.75" y="245.9" width="9.88" height="9.84"/><polygon class="cls-3" points="19.75 236.07 29.63 236.07 29.63 226.23 19.75 226.23 19.75 216.39 9.88 216.39 9.88 206.56 9.88 196.72 0 196.72 0 206.56 0 216.39 0 226.23 0 236.07 9.88 236.07 19.75 236.07"/><polygon class="cls-3" points="19.75 177.05 29.63 177.05 39.51 177.05 49.38 177.05 59.26 177.05 69.14 177.05 69.14 186.89 79.01 186.89 88.89 186.89 88.89 196.72 98.77 196.72 108.64 196.72 108.64 206.56 118.52 206.56 128.4 206.56 128.4 216.39 138.27 216.39 148.15 216.39 158.02 216.39 158.02 206.56 148.15 206.56 148.15 196.72 138.27 196.72 138.27 186.89 128.4 186.89 128.4 177.05 118.52 177.05 108.64 177.05 108.64 167.21 98.77 167.21 88.89 167.21 79.01 167.21 79.01 157.38 69.14 157.38 59.26 157.38 49.38 157.38 39.51 157.38 29.63 157.38 19.75 157.38 19.75 147.54 9.88 147.54 0 147.54 0 157.38 0 167.21 0 177.05 9.88 177.05 19.75 177.05"/></g></g></svg>