<svg xmlns="http://www.w3.org/2000/svg" viewBox="0 0 271.6 270.5"><defs><style>.cls-1{fill:#735e53;}.cls-2{fill:#ff6737;}.cls-3{fill:#c85b6c;}.cls-4{fill:#e75047;}.cls-5{fill:#fe7568;}.cls-6{fill:#d9c7b8;}.cls-7{fill:#f2e6d8;}</style></defs><title>bill</title><g id="Layer_2" data-name="Layer 2"><g id="Layer_1-2" data-name="Layer 1"><rect class="cls-1" x="264.26" y="102.35" width="7.34" height="7.31"/><rect class="cls-1" x="264.26" y="95.04" width="7.34" height="7.31"/><rect class="cls-1" x="256.92" y="116.97" width="7.34" height="7.31"/><rect class="cls-1" x="256.92" y="109.66" width="7.34" height="7.31"/><rect class="cls-1" x="256.92" y="87.73" width="7.34" height="7.31"/><rect class="cls-1" x="256.92" y="80.42" width="7.34" height="7.31"/><rect class="cls-1" x="256.92" y="73.11" width="7.34" height="7.31"/><rect class="cls-1" x="249.58" y="116.97" width="7.34" height="7.31"/><rect class="cls-1" x="249.58" y="65.8" width="7.34" height="7.31"/><rect class="cls-1" x="249.58" y="58.49" width="7.34" height="7.31"/><rect class="cls-1" x="249.58" y="51.18" width="7.34" height="7.31"/><rect class="cls-1" x="242.24" y="124.28" width="7.34" height="7.31"/><rect class="cls-1" x="242.24" y="116.97" width="7.34" height="7.31"/><rect class="cls-1" x="242.24" y="51.18" width="7.34" height="7.31"/><rect class="cls-1" x="242.24" y="43.87" width="7.34" height="7.31"/><rect class="cls-1" x="234.9" y="124.28" width="7.34" height="7.31"/><rect class="cls-1" x="234.9" y="36.55" width="7.34" height="7.31"/><rect class="cls-1" x="227.56" y="131.59" width="7.34" height="7.31"/><rect class="cls-1" x="227.56" y="29.25" width="7.34" height="7.31"/><rect class="cls-1" x="220.21" y="138.9" width="7.34" height="7.31"/><rect class="cls-1" x="220.21" y="21.93" width="7.34" height="7.31"/><rect class="cls-1" x="212.88" y="146.21" width="7.34" height="7.31"/><rect class="cls-1" x="212.88" y="14.63" width="7.34" height="7.31"/><rect class="cls-1" x="205.54" y="146.21" width="7.34" height="7.31"/><rect class="cls-1" x="205.54" y="7.31" width="7.34" height="7.31"/><rect class="cls-1" x="198.19" y="153.52" width="7.34" height="7.31"/><rect class="cls-1" x="198.19" y="7.31" width="7.34" height="7.31"/><rect class="cls-1" x="198.19" width="7.34" height="7.31"/><rect class="cls-1" x="190.86" y="160.84" width="7.34" height="7.31"/><rect class="cls-1" x="190.86" width="7.34" height="7.31"/><rect class="cls-2" x="183.51" y="248.56" width="7.34" height="7.31"/><rect class="cls-1" x="183.51" width="7.34" height="7.31"/><rect class="cls-1" x="176.17" y="14.63" width="7.34" height="7.31"/><rect class="cls-1" x="176.17" y="7.31" width="7.34" height="7.31"/><rect class="cls-1" x="168.83" y="29.25" width="7.34" height="7.31"/><rect class="cls-1" x="168.83" y="21.93" width="7.34" height="7.31"/><rect class="cls-1" x="161.49" y="43.87" width="7.34" height="7.31"/><rect class="cls-1" x="161.49" y="36.55" width="7.34" height="7.31"/><rect class="cls-1" x="154.15" y="197.39" width="7.34" height="7.31"/><polygon class="cls-3" points="183.51 124.28 183.51 131.59 176.17 131.59 176.17 138.9 168.84 138.9 168.84 146.21 161.49 146.21 161.49 153.52 154.15 153.52 154.15 160.84 154.15 168.14 161.49 168.14 161.49 175.46 161.49 182.76 161.49 190.08 161.49 197.39 168.84 197.39 168.84 190.08 176.17 190.08 176.17 182.76 183.51 182.76 183.51 175.46 190.86 175.46 190.86 168.14 190.86 160.84 190.86 153.52 190.86 146.21 190.86 138.9 190.86 131.59 190.86 124.28 183.51 124.28"/><rect class="cls-1" x="154.15" y="51.18" width="7.34" height="7.31"/><rect class="cls-1" x="154.15" y="43.87" width="7.34" height="7.31"/><polygon class="cls-4" points="256.92 219.32 249.58 219.32 242.24 219.32 234.9 219.32 227.56 219.32 227.56 212.01 220.22 212.01 212.88 212.01 212.88 204.7 205.54 204.7 205.54 197.39 205.54 190.08 205.54 182.76 198.19 182.76 190.86 182.76 190.86 175.46 183.51 175.46 183.51 182.76 176.17 182.76 176.17 190.08 168.84 190.08 168.84 197.39 168.84 204.7 161.49 204.7 161.49 212.01 161.49 219.32 154.15 219.32 154.15 226.63 154.15 233.94 146.81 233.94 146.81 241.25 146.81 248.56 146.81 255.88 146.81 263.18 146.81 270.5 154.15 270.5 161.49 270.5 161.49 263.18 161.49 255.88 168.84 255.88 168.84 248.56 176.17 248.56 176.17 241.25 176.17 233.94 176.17 226.63 176.17 219.32 183.51 219.32 183.51 212.01 183.51 204.7 183.51 197.39 190.86 197.39 190.86 204.7 198.19 204.7 198.19 212.01 205.54 212.01 205.54 219.32 212.88 219.32 212.88 226.63 220.22 226.63 220.22 233.94 227.56 233.94 234.9 233.94 234.9 241.25 242.24 241.25 249.58 241.25 256.92 241.25 256.92 233.94 256.92 226.63 264.26 226.63 264.26 219.32 256.92 219.32"/><rect class="cls-1" x="146.81" y="204.7" width="7.34" height="7.31"/><rect class="cls-1" x="146.81" y="58.49" width="7.34" height="7.31"/><rect class="cls-1" x="139.47" y="219.32" width="7.34" height="7.31"/><rect class="cls-1" x="139.47" y="212.01" width="7.34" height="7.31"/><rect class="cls-1" x="139.47" y="58.49" width="7.34" height="7.31"/><rect class="cls-1" x="132.13" y="226.63" width="7.34" height="7.31"/><rect class="cls-1" x="132.13" y="65.8" width="7.34" height="7.31"/><rect class="cls-1" x="124.79" y="233.94" width="7.34" height="7.31"/><rect class="cls-1" x="124.79" y="226.63" width="7.34" height="7.31"/><rect class="cls-1" x="117.45" y="241.25" width="7.34" height="7.31"/><rect class="cls-1" x="117.45" y="233.94" width="7.34" height="7.31"/><rect class="cls-1" x="110.1" y="248.56" width="7.34" height="7.31"/><rect class="cls-1" x="110.1" y="241.25" width="7.34" height="7.31"/><rect class="cls-1" x="102.77" y="248.56" width="7.34" height="7.31"/><polygon class="cls-5" points="256.92 190.08 249.58 190.08 242.24 190.08 234.9 190.08 227.56 190.08 220.22 190.08 212.88 190.08 212.88 182.76 205.54 182.76 205.54 190.08 205.54 197.39 205.54 204.7 212.88 204.7 212.88 212.01 220.22 212.01 227.56 212.01 227.56 219.32 234.9 219.32 242.24 219.32 249.58 219.32 256.92 219.32 264.26 219.32 264.26 212.01 264.26 204.7 264.26 197.39 264.26 190.08 256.92 190.08"/><path class="cls-5" d="M198.19,241.25h-7.33V226.63h-7.35v-7.31h-7.34v29.24h-7.34v7.32h-7.34V270.5h22v-7.32h22V248.56h-7.35Zm-7.33,14.63h-7.35v-7.32h7.35Z"/><polygon class="cls-5" points="161.49 146.21 168.84 146.21 168.84 138.9 176.17 138.9 176.17 131.59 183.51 131.59 183.51 124.28 190.86 124.28 190.86 116.97 183.51 116.97 183.51 109.66 176.17 109.66 176.17 102.35 176.17 95.04 168.84 95.04 168.84 87.73 161.49 87.73 154.15 87.73 154.15 80.42 146.81 80.42 146.81 73.11 139.47 73.11 132.13 73.11 124.79 73.11 124.79 80.42 117.45 80.42 117.45 87.73 110.1 87.73 110.1 95.04 102.77 95.04 102.77 102.35 102.77 109.66 110.1 109.66 110.1 116.97 117.45 116.97 117.45 124.28 124.79 124.28 132.13 124.28 132.13 131.59 139.47 131.59 139.47 138.9 139.47 146.21 146.81 146.21 146.81 153.52 154.15 153.52 161.49 153.52 161.49 146.21"/><rect class="cls-1" x="95.42" y="248.56" width="7.34" height="7.31"/><rect class="cls-1" x="95.42" y="233.94" width="7.34" height="7.31"/><rect class="cls-1" x="95.42" y="226.63" width="7.34" height="7.31"/><rect class="cls-1" x="95.42" y="219.32" width="7.34" height="7.31"/><rect class="cls-1" x="95.42" y="212.01" width="7.34" height="7.31"/><rect class="cls-1" x="95.42" y="102.35" width="7.34" height="7.31"/><rect class="cls-1" x="88.09" y="248.56" width="7.34" height="7.31"/><rect class="cls-1" x="88.09" y="212.01" width="7.34" height="7.31"/><rect class="cls-1" x="88.09" y="204.7" width="7.34" height="7.31"/><rect class="cls-1" x="88.09" y="116.97" width="7.34" height="7.31"/><rect class="cls-1" x="88.09" y="109.66" width="7.34" height="7.31"/><rect class="cls-1" x="80.75" y="248.56" width="7.34" height="7.31"/><rect class="cls-1" x="80.75" y="204.7" width="7.34" height="7.31"/><rect class="cls-1" x="80.75" y="197.39" width="7.34" height="7.31"/><rect class="cls-1" x="80.75" y="190.08" width="7.34" height="7.31"/><rect class="cls-1" x="80.75" y="116.97" width="7.34" height="7.31"/><rect class="cls-1" x="73.4" y="248.56" width="7.34" height="7.31"/><rect class="cls-1" x="73.4" y="241.25" width="7.34" height="7.31"/><rect class="cls-1" x="73.4" y="219.32" width="7.34" height="7.31"/><rect class="cls-1" x="73.4" y="190.08" width="7.34" height="7.31"/><rect class="cls-1" x="73.4" y="182.76" width="7.34" height="7.31"/><rect class="cls-1" x="73.4" y="124.28" width="7.34" height="7.31"/><rect class="cls-1" x="66.07" y="241.25" width="7.34" height="7.31"/><rect class="cls-1" x="66.07" y="219.32" width="7.34" height="7.31"/><rect class="cls-1" x="66.07" y="204.7" width="7.34" height="7.31"/><rect class="cls-1" x="66.07" y="182.76" width="7.34" height="7.31"/><rect class="cls-1" x="66.07" y="175.46" width="7.34" height="7.31"/><rect class="cls-1" x="66.07" y="124.28" width="7.34" height="7.31"/><rect class="cls-1" x="58.72" y="241.25" width="7.34" height="7.31"/><rect class="cls-1" x="58.72" y="233.94" width="7.34" height="7.31"/><rect class="cls-1" x="58.72" y="219.32" width="7.34" height="7.31"/><rect class="cls-1" x="58.72" y="197.39" width="7.34" height="7.31"/><rect class="cls-1" x="58.72" y="168.14" width="7.34" height="7.31"/><rect class="cls-1" x="58.72" y="131.59" width="7.34" height="7.31"/><rect class="cls-1" x="58.72" y="124.28" width="7.34" height="7.31"/><rect class="cls-1" x="51.38" y="233.94" width="7.34" height="7.31"/><rect class="cls-1" x="51.38" y="212.01" width="7.34" height="7.31"/><rect class="cls-1" x="51.38" y="190.08" width="7.34" height="7.31"/><rect class="cls-1" x="51.38" y="168.14" width="7.34" height="7.31"/><rect class="cls-1" x="51.38" y="160.84" width="7.34" height="7.31"/><rect class="cls-1" x="51.38" y="131.59" width="7.34" height="7.31"/><rect class="cls-1" x="44.04" y="233.94" width="7.34" height="7.31"/><rect class="cls-1" x="44.04" y="226.63" width="7.34" height="7.31"/><rect class="cls-1" x="44.04" y="212.01" width="7.34" height="7.31"/><rect class="cls-1" x="44.04" y="182.76" width="7.34" height="7.31"/><rect class="cls-1" x="44.04" y="160.84" width="7.34" height="7.31"/><rect class="cls-1" x="44.04" y="153.52" width="7.34" height="7.31"/><rect class="cls-1" x="44.04" y="131.59" width="7.34" height="7.31"/><rect class="cls-1" x="36.7" y="226.63" width="7.34" height="7.31"/><rect class="cls-1" x="36.7" y="204.7" width="7.34" height="7.31"/><rect class="cls-1" x="36.7" y="197.39" width="7.34" height="7.31"/><rect class="cls-1" x="36.7" y="175.46" width="7.34" height="7.31"/><rect class="cls-1" x="36.7" y="153.52" width="7.34" height="7.31"/><rect class="cls-1" x="36.7" y="131.59" width="7.34" height="7.31"/><rect class="cls-1" x="29.36" y="219.32" width="7.34" height="7.31"/><rect class="cls-1" x="29.36" y="197.39" width="7.34" height="7.31"/><rect class="cls-1" x="29.36" y="190.08" width="7.34" height="7.31"/><polygon class="cls-6" points="256.92 95.04 256.92 87.73 256.92 80.42 256.92 73.11 249.58 73.11 249.58 65.8 249.58 58.49 242.24 58.49 242.24 51.18 234.9 51.18 234.9 58.49 234.9 65.8 234.9 73.11 227.56 73.11 227.56 80.42 220.22 80.42 220.22 87.73 220.22 95.04 212.88 95.04 212.88 102.35 205.54 102.35 205.54 109.66 198.19 109.66 198.19 116.97 190.86 116.97 190.86 124.28 190.86 131.59 190.86 138.9 190.86 146.21 190.86 153.52 190.86 160.84 198.19 160.84 198.19 153.52 205.54 153.52 205.54 146.21 212.88 146.21 220.22 146.21 220.22 138.9 227.56 138.9 227.56 131.59 234.9 131.59 234.9 124.28 242.24 124.28 242.24 116.97 249.58 116.97 256.92 116.97 256.92 109.66 264.26 109.66 264.26 102.35 264.26 95.04 256.92 95.04"/><polygon class="cls-6" points="154.15 160.84 154.15 153.52 146.81 153.52 139.47 153.52 139.47 160.84 132.13 160.84 132.13 168.14 124.79 168.14 117.45 168.14 117.45 175.46 110.1 175.46 110.1 182.76 102.77 182.76 95.42 182.76 95.42 190.08 95.42 197.39 102.77 197.39 102.77 204.7 110.1 204.7 110.1 212.01 110.1 219.32 110.1 226.63 110.1 233.94 117.45 233.94 124.79 233.94 124.79 226.63 132.13 226.63 139.47 226.63 139.47 219.32 139.47 212.01 146.81 212.01 146.81 204.7 154.15 204.7 154.15 197.39 161.49 197.39 161.49 190.08 161.49 182.76 161.49 175.46 161.49 168.14 154.15 168.14 154.15 160.84"/><path class="cls-6" d="M88.09,212H80.75V197.39H73.4v-7.31H66.07V175.46H51.38v-7.32H44v-7.3H36.7v7.3H29.36v21.94H36.7v7.31H44V212H58.72v7.31h22v7.31H73.4v7.31h7.35v7.31H95.42V219.32H88.09Zm-22,0V204.7H58.72v-7.31H51.38v-7.31H44v-7.32H36.7v-7.3H44v7.3h7.34v7.32h7.34v7.31h7.35v7.31H73.4V212Z"/><rect class="cls-1" x="29.36" y="160.84" width="7.34" height="7.31"/><rect class="cls-1" x="29.36" y="153.52" width="7.34" height="7.31"/><rect class="cls-1" x="29.36" y="138.9" width="7.34" height="7.31"/><rect class="cls-1" x="22.02" y="212.01" width="7.34" height="7.31"/><rect class="cls-1" x="22.02" y="182.76" width="7.34" height="7.31"/><rect class="cls-1" x="22.02" y="175.46" width="7.34" height="7.31"/><rect class="cls-1" x="22.02" y="168.14" width="7.34" height="7.31"/><rect class="cls-1" x="22.02" y="160.84" width="7.34" height="7.31"/><rect class="cls-1" x="22.02" y="138.9" width="7.34" height="7.31"/><rect class="cls-1" x="14.68" y="204.7" width="7.34" height="7.31"/><rect class="cls-1" x="14.68" y="197.39" width="7.34" height="7.31"/><rect class="cls-1" x="14.68" y="138.9" width="7.34" height="7.31"/><rect class="cls-1" x="7.34" y="197.39" width="7.34" height="7.31"/><rect class="cls-1" x="7.34" y="190.08" width="7.34" height="7.31"/><rect class="cls-1" x="7.34" y="182.76" width="7.34" height="7.31"/><polygon class="cls-7" points="234.9 43.87 234.9 36.55 227.56 36.55 227.56 29.25 220.22 29.25 220.22 21.93 212.88 21.93 212.88 14.63 205.54 14.63 198.19 14.63 198.19 7.31 190.86 7.31 183.51 7.31 183.51 14.63 183.51 21.93 176.17 21.93 176.17 29.25 176.17 36.55 168.84 36.55 168.84 43.87 168.84 51.18 161.49 51.18 161.49 58.49 154.15 58.49 154.15 65.8 146.81 65.8 139.47 65.8 139.47 73.11 146.81 73.11 146.81 80.42 154.15 80.42 154.15 87.73 161.49 87.73 168.84 87.73 168.84 95.04 176.17 95.04 176.17 102.35 176.17 109.66 183.51 109.66 183.51 116.97 190.86 116.97 198.19 116.97 198.19 109.66 205.54 109.66 205.54 102.35 212.88 102.35 212.88 95.04 220.22 95.04 220.22 87.73 220.22 80.42 227.56 80.42 227.56 73.11 234.9 73.11 234.9 65.8 234.9 58.49 234.9 51.18 242.24 51.18 242.24 43.87 234.9 43.87"/><polygon class="cls-7" points="139.47 138.9 139.47 131.59 132.13 131.59 132.13 124.28 124.79 124.28 117.45 124.28 117.45 116.97 110.1 116.97 110.1 109.66 102.77 109.66 95.42 109.66 95.42 116.97 95.42 124.28 88.09 124.28 80.75 124.28 80.75 131.59 73.4 131.59 66.07 131.59 66.07 138.9 58.72 138.9 51.38 138.9 44.04 138.9 36.7 138.9 36.7 146.21 29.36 146.21 22.02 146.21 14.68 146.21 14.68 153.52 14.68 160.84 7.34 160.84 7.34 168.14 7.34 175.46 7.34 182.76 14.68 182.76 14.68 190.08 14.68 197.39 22.02 197.39 22.02 204.7 22.02 212.01 29.36 212.01 29.36 219.32 36.7 219.32 36.7 226.63 44.04 226.63 51.38 226.63 51.38 233.94 58.72 233.94 66.07 233.94 66.07 241.25 73.4 241.25 80.75 241.25 80.75 233.94 73.4 233.94 73.4 226.63 66.07 226.63 58.72 226.63 58.72 219.32 51.38 219.32 44.04 219.32 44.04 212.01 36.7 212.01 36.7 204.7 29.36 204.7 29.36 197.39 29.36 190.08 22.02 190.08 22.02 182.76 22.02 175.46 22.02 168.14 22.02 160.84 29.36 160.84 29.36 153.52 36.7 153.52 44.04 153.52 51.38 153.52 51.38 160.84 58.72 160.84 58.72 168.14 66.07 168.14 66.07 175.46 73.4 175.46 73.4 182.76 80.75 182.76 80.75 190.08 88.09 190.08 88.09 197.39 88.09 204.7 95.42 204.7 95.42 212.01 102.77 212.01 102.77 219.32 102.77 226.63 102.77 233.94 102.77 241.25 95.42 241.25 88.09 241.25 80.75 241.25 80.75 248.56 88.09 248.56 95.42 248.56 102.77 248.56 110.1 248.56 110.1 241.25 117.45 241.25 117.45 233.94 110.1 233.94 110.1 226.63 110.1 219.32 110.1 212.01 110.1 204.7 102.77 204.7 102.77 197.39 95.42 197.39 95.42 190.08 95.42 182.76 102.77 182.76 110.1 182.76 110.1 175.46 117.45 175.46 117.45 168.14 124.79 168.14 132.13 168.14 132.13 160.84 139.47 160.84 139.47 153.52 146.81 153.52 146.81 146.21 139.47 146.21 139.47 138.9"/><rect class="cls-1" x="7.34" y="153.52" width="7.34" height="7.31"/><rect class="cls-1" x="7.34" y="146.21" width="7.34" height="7.31"/><rect class="cls-1" x="7.34" y="138.9" width="7.34" height="7.31"/><rect class="cls-1" y="182.76" width="7.34" height="7.31"/><rect class="cls-1" y="175.46" width="7.34" height="7.31"/><rect class="cls-1" y="168.14" width="7.34" height="7.31"/><rect class="cls-1" y="160.84" width="7.34" height="7.31"/></g></g></svg>