<svg xmlns="http://www.w3.org/2000/svg" viewBox="0 0 800 521.31"><defs><style>.cls-1{fill:#ccc;}.cls-2{fill:#666;}.cls-3{fill:#e6e6e6;}.cls-4{fill:#f2f2f2;}.cls-5{fill:#737373;}.cls-6{fill:#999;}.cls-7{fill:#b3b3b3;}</style></defs><title>capitol</title><g id="Layer_2" data-name="Layer 2"><g id="Layer_3" data-name="Layer 3"><rect class="cls-1" x="691.36" y="413.11" width="9.87" height="9.84"/><rect class="cls-1" x="691.36" y="403.28" width="9.87" height="9.83"/><rect class="cls-1" x="691.36" y="393.44" width="9.87" height="9.84"/><rect class="cls-2" x="691.36" y="363.93" width="9.87" height="9.84"/><rect class="cls-2" x="691.36" y="275.41" width="9.87" height="9.83"/><rect class="cls-1" x="681.48" y="413.11" width="9.88" height="9.84"/><rect class="cls-1" x="681.48" y="403.28" width="9.88" height="9.83"/><rect class="cls-1" x="681.48" y="393.44" width="9.88" height="9.84"/><rect class="cls-1" x="681.48" y="383.61" width="9.88" height="9.83"/><rect class="cls-2" x="681.48" y="363.93" width="9.88" height="9.84"/><rect class="cls-2" x="681.48" y="354.1" width="9.88" height="9.83"/><rect class="cls-2" x="681.48" y="344.26" width="9.88" height="9.84"/><rect class="cls-2" x="681.48" y="334.42" width="9.88" height="9.84"/><rect class="cls-2" x="681.48" y="324.59" width="9.88" height="9.83"/><rect class="cls-2" x="681.48" y="285.24" width="9.88" height="9.84"/><rect class="cls-2" x="681.48" y="275.41" width="9.88" height="9.83"/><rect class="cls-2" x="681.48" y="265.57" width="9.88" height="9.84"/><rect class="cls-2" x="681.48" y="255.74" width="9.88" height="9.83"/><rect class="cls-1" x="671.6" y="422.95" width="9.88" height="9.84"/><rect class="cls-1" x="671.6" y="383.61" width="9.88" height="9.83"/><rect class="cls-2" x="671.6" y="324.59" width="9.88" height="9.83"/><rect class="cls-2" x="671.6" y="314.75" width="9.88" height="9.84"/><rect class="cls-2" x="671.6" y="304.92" width="9.88" height="9.83"/><rect class="cls-2" x="671.6" y="295.08" width="9.88" height="9.84"/><rect class="cls-2" x="671.6" y="275.41" width="9.88" height="9.83"/><rect class="cls-2" x="671.6" y="255.74" width="9.88" height="9.83"/><rect class="cls-2" x="671.6" y="245.9" width="9.88" height="9.84"/><rect class="cls-1" x="661.73" y="422.95" width="9.87" height="9.84"/><rect class="cls-1" x="661.73" y="403.28" width="9.87" height="9.83"/><rect class="cls-1" x="661.73" y="393.44" width="9.87" height="9.84"/><rect class="cls-1" x="661.73" y="383.61" width="9.87" height="9.83"/><rect class="cls-2" x="661.73" y="275.41" width="9.87" height="9.83"/><rect class="cls-2" x="661.73" y="245.9" width="9.87" height="9.84"/><rect class="cls-1" x="651.85" y="422.95" width="9.88" height="9.84"/><rect class="cls-1" x="651.85" y="383.61" width="9.88" height="9.83"/><rect class="cls-2" x="651.85" y="363.93" width="9.88" height="9.84"/><rect class="cls-2" x="651.85" y="354.1" width="9.88" height="9.83"/><rect class="cls-2" x="651.85" y="275.41" width="9.88" height="9.83"/><rect class="cls-2" x="651.85" y="236.06" width="9.88" height="9.84"/><rect class="cls-1" x="641.98" y="422.95" width="9.87" height="9.84"/><rect class="cls-1" x="641.98" y="413.11" width="9.87" height="9.84"/><rect class="cls-1" x="641.98" y="403.28" width="9.87" height="9.83"/><rect class="cls-1" x="641.98" y="393.44" width="9.87" height="9.84"/><rect class="cls-1" x="641.98" y="383.61" width="9.87" height="9.83"/><rect class="cls-2" x="641.98" y="354.1" width="9.87" height="9.83"/><rect class="cls-2" x="641.98" y="344.26" width="9.87" height="9.84"/><rect class="cls-2" x="641.98" y="334.42" width="9.87" height="9.84"/><rect class="cls-2" x="641.98" y="324.59" width="9.87" height="9.83"/><rect class="cls-2" x="641.98" y="314.75" width="9.87" height="9.84"/><rect class="cls-2" x="641.98" y="304.92" width="9.87" height="9.83"/><rect class="cls-2" x="641.98" y="295.08" width="9.87" height="9.84"/><rect class="cls-2" x="641.98" y="275.41" width="9.87" height="9.83"/><rect class="cls-2" x="641.98" y="236.06" width="9.87" height="9.84"/><rect class="cls-2" x="641.98" y="226.23" width="9.87" height="9.83"/><rect class="cls-1" x="632.1" y="422.95" width="9.88" height="9.84"/><rect class="cls-1" x="632.1" y="413.11" width="9.88" height="9.84"/><rect class="cls-1" x="632.1" y="403.28" width="9.88" height="9.83"/><rect class="cls-1" x="632.1" y="393.44" width="9.88" height="9.84"/><rect class="cls-1" x="632.1" y="383.61" width="9.88" height="9.83"/><rect class="cls-2" x="632.1" y="275.41" width="9.88" height="9.83"/><rect class="cls-2" x="632.1" y="226.23" width="9.88" height="9.83"/><rect class="cls-1" x="622.22" y="422.95" width="9.88" height="9.84"/><rect class="cls-1" x="622.22" y="413.11" width="9.88" height="9.84"/><rect class="cls-1" x="622.22" y="403.28" width="9.88" height="9.83"/><rect class="cls-1" x="622.22" y="393.44" width="9.88" height="9.84"/><rect class="cls-1" x="622.22" y="383.61" width="9.88" height="9.83"/><rect class="cls-2" x="622.22" y="275.41" width="9.88" height="9.83"/><rect class="cls-2" x="622.22" y="236.06" width="9.88" height="9.84"/><rect class="cls-2" x="622.22" y="226.23" width="9.88" height="9.83"/><rect class="cls-2" x="622.22" y="216.39" width="9.88" height="9.84"/><rect class="cls-1" x="612.35" y="432.79" width="9.87" height="9.83"/><rect class="cls-1" x="612.35" y="422.95" width="9.87" height="9.84"/><rect class="cls-1" x="612.35" y="413.11" width="9.87" height="9.84"/><rect class="cls-1" x="612.35" y="403.28" width="9.87" height="9.83"/><rect class="cls-1" x="612.35" y="393.44" width="9.87" height="9.84"/><rect class="cls-1" x="612.35" y="383.61" width="9.87" height="9.83"/><rect class="cls-2" x="612.35" y="363.93" width="9.87" height="9.84"/><rect class="cls-2" x="612.35" y="354.1" width="9.87" height="9.83"/><rect class="cls-2" x="612.35" y="344.26" width="9.87" height="9.84"/><rect class="cls-2" x="612.35" y="334.42" width="9.87" height="9.84"/><rect class="cls-2" x="612.35" y="324.59" width="9.87" height="9.83"/><rect class="cls-2" x="612.35" y="314.75" width="9.87" height="9.84"/><rect class="cls-2" x="612.35" y="304.92" width="9.87" height="9.83"/><rect class="cls-2" x="612.35" y="295.08" width="9.87" height="9.84"/><rect class="cls-2" x="612.35" y="275.41" width="9.87" height="9.83"/><rect class="cls-2" x="612.35" y="236.06" width="9.87" height="9.84"/><rect class="cls-2" x="612.35" y="216.39" width="9.87" height="9.84"/><rect class="cls-1" x="602.47" y="432.79" width="9.88" height="9.83"/><rect class="cls-1" x="602.47" y="422.95" width="9.88" height="9.84"/><rect class="cls-1" x="602.47" y="413.11" width="9.88" height="9.84"/><rect class="cls-1" x="602.47" y="403.28" width="9.88" height="9.83"/><rect class="cls-1" x="602.47" y="383.61" width="9.88" height="9.83"/><rect class="cls-2" x="602.47" y="275.41" width="9.88" height="9.83"/><rect class="cls-2" x="602.47" y="245.9" width="9.88" height="9.84"/><rect class="cls-2" x="602.47" y="236.06" width="9.88" height="9.84"/><rect class="cls-2" x="602.47" y="216.39" width="9.88" height="9.84"/><rect class="cls-1" x="592.59" y="432.79" width="9.88" height="9.83"/><rect class="cls-1" x="592.59" y="422.95" width="9.88" height="9.84"/><rect class="cls-1" x="592.59" y="383.61" width="9.88" height="9.83"/><rect class="cls-2" x="592.59" y="275.41" width="9.88" height="9.83"/><rect class="cls-2" x="592.59" y="255.74" width="9.88" height="9.83"/><rect class="cls-2" x="592.59" y="245.9" width="9.88" height="9.84"/><rect class="cls-2" x="592.59" y="216.39" width="9.88" height="9.84"/><rect class="cls-1" x="582.72" y="432.79" width="9.87" height="9.83"/><rect class="cls-1" x="582.72" y="422.95" width="9.87" height="9.84"/><rect class="cls-1" x="582.72" y="393.44" width="9.87" height="9.84"/><rect class="cls-1" x="582.72" y="383.61" width="9.87" height="9.83"/><rect class="cls-2" x="582.72" y="344.26" width="9.87" height="9.84"/><rect class="cls-2" x="582.72" y="334.42" width="9.87" height="9.84"/><rect class="cls-2" x="582.72" y="324.59" width="9.87" height="9.83"/><rect class="cls-2" x="582.72" y="314.75" width="9.87" height="9.84"/><rect class="cls-2" x="582.72" y="304.92" width="9.87" height="9.83"/><rect class="cls-2" x="582.72" y="295.08" width="9.87" height="9.84"/><rect class="cls-2" x="582.72" y="275.41" width="9.87" height="9.83"/><rect class="cls-2" x="582.72" y="255.74" width="9.87" height="9.83"/><rect class="cls-2" x="582.72" y="216.39" width="9.87" height="9.84"/><rect class="cls-1" x="572.84" y="432.79" width="9.88" height="9.83"/><rect class="cls-1" x="572.84" y="422.95" width="9.88" height="9.84"/><rect class="cls-1" x="572.84" y="413.11" width="9.88" height="9.84"/><rect class="cls-1" x="572.84" y="403.28" width="9.88" height="9.83"/><rect class="cls-1" x="572.84" y="393.44" width="9.88" height="9.84"/><rect class="cls-1" x="572.84" y="383.61" width="9.88" height="9.83"/><rect class="cls-2" x="572.84" y="363.93" width="9.88" height="9.84"/><rect class="cls-2" x="572.84" y="354.1" width="9.88" height="9.83"/><rect class="cls-2" x="572.84" y="344.26" width="9.88" height="9.84"/><rect class="cls-2" x="572.84" y="275.41" width="9.88" height="9.83"/><rect class="cls-2" x="572.84" y="265.57" width="9.88" height="9.84"/><rect class="cls-2" x="572.84" y="255.74" width="9.88" height="9.83"/><rect class="cls-2" x="572.84" y="216.39" width="9.88" height="9.84"/><rect class="cls-1" x="562.96" y="403.28" width="9.88" height="9.83"/><rect class="cls-1" x="562.96" y="393.44" width="9.88" height="9.84"/><rect class="cls-1" x="562.96" y="383.61" width="9.88" height="9.83"/><rect class="cls-2" x="562.96" y="265.57" width="9.88" height="9.84"/><rect class="cls-2" x="562.96" y="216.39" width="9.88" height="9.84"/><rect class="cls-1" x="553.09" y="442.62" width="9.87" height="9.84"/><rect class="cls-1" x="553.09" y="432.79" width="9.87" height="9.83"/><rect class="cls-1" x="553.09" y="403.28" width="9.87" height="9.83"/><rect class="cls-2" x="553.09" y="216.39" width="9.87" height="9.84"/><rect class="cls-1" x="543.21" y="413.11" width="9.88" height="9.84"/><rect class="cls-2" x="543.21" y="275.41" width="9.88" height="9.83"/><rect class="cls-2" x="543.21" y="226.23" width="9.88" height="9.83"/><rect class="cls-1" x="533.33" y="432.79" width="9.88" height="9.83"/><rect class="cls-1" x="533.33" y="393.44" width="9.88" height="9.84"/><rect class="cls-2" x="533.33" y="275.41" width="9.88" height="9.83"/><rect class="cls-2" x="533.33" y="226.23" width="9.88" height="9.83"/><rect class="cls-1" x="523.46" y="432.79" width="9.87" height="9.83"/><rect class="cls-1" x="523.46" y="422.95" width="9.87" height="9.84"/><rect class="cls-1" x="523.46" y="413.11" width="9.87" height="9.84"/><rect class="cls-1" x="523.46" y="393.44" width="9.87" height="9.84"/><rect class="cls-2" x="523.46" y="275.41" width="9.87" height="9.83"/><rect class="cls-2" x="523.46" y="236.06" width="9.87" height="9.84"/><rect class="cls-2" x="523.46" y="226.23" width="9.87" height="9.83"/><rect class="cls-1" x="513.58" y="432.79" width="9.88" height="9.83"/><rect class="cls-1" x="513.58" y="422.95" width="9.88" height="9.84"/><rect class="cls-1" x="513.58" y="393.44" width="9.88" height="9.84"/><rect class="cls-2" x="513.58" y="354.1" width="9.88" height="9.83"/><rect class="cls-2" x="513.58" y="344.26" width="9.88" height="9.84"/><rect class="cls-2" x="513.58" y="334.42" width="9.88" height="9.84"/><rect class="cls-2" x="513.58" y="324.59" width="9.88" height="9.83"/><rect class="cls-2" x="513.58" y="314.75" width="9.88" height="9.84"/><rect class="cls-2" x="513.58" y="304.92" width="9.88" height="9.83"/><rect class="cls-2" x="513.58" y="275.41" width="9.88" height="9.83"/><rect class="cls-2" x="513.58" y="236.06" width="9.88" height="9.84"/><rect class="cls-1" x="503.7" y="422.95" width="9.88" height="9.84"/><rect class="cls-1" x="503.7" y="413.11" width="9.88" height="9.84"/><rect class="cls-1" x="503.7" y="403.28" width="9.88" height="9.83"/><rect class="cls-1" x="503.7" y="393.44" width="9.88" height="9.84"/><rect class="cls-2" x="503.7" y="354.1" width="9.88" height="9.83"/><rect class="cls-2" x="503.7" y="275.41" width="9.88" height="9.83"/><rect class="cls-2" x="503.7" y="236.06" width="9.88" height="9.84"/><rect class="cls-1" x="493.83" y="422.95" width="9.87" height="9.84"/><rect class="cls-1" x="493.83" y="413.11" width="9.87" height="9.84"/><rect class="cls-1" x="493.83" y="403.28" width="9.87" height="9.83"/><rect class="cls-2" x="493.83" y="275.41" width="9.87" height="9.83"/><rect class="cls-2" x="493.83" y="236.06" width="9.87" height="9.84"/><rect class="cls-1" x="483.95" y="422.95" width="9.88" height="9.84"/><rect class="cls-1" x="483.95" y="413.11" width="9.88" height="9.84"/><rect class="cls-1" x="483.95" y="403.28" width="9.88" height="9.83"/><rect class="cls-2" x="483.95" y="275.41" width="9.88" height="9.83"/><rect class="cls-2" x="483.95" y="236.06" width="9.88" height="9.84"/><rect class="cls-1" x="474.07" y="422.95" width="9.88" height="9.84"/><rect class="cls-1" x="474.07" y="413.11" width="9.88" height="9.84"/><rect class="cls-1" x="474.07" y="403.28" width="9.88" height="9.83"/><rect class="cls-1" x="474.07" y="393.44" width="9.88" height="9.84"/><rect class="cls-2" x="474.07" y="363.93" width="9.88" height="9.84"/><rect class="cls-2" x="474.07" y="354.1" width="9.88" height="9.83"/><rect class="cls-2" x="474.07" y="344.26" width="9.88" height="9.84"/><rect class="cls-2" x="474.07" y="334.42" width="9.88" height="9.84"/><rect class="cls-2" x="474.07" y="324.59" width="9.88" height="9.83"/><rect class="cls-2" x="474.07" y="314.75" width="9.88" height="9.84"/><rect class="cls-2" x="474.07" y="285.24" width="9.88" height="9.84"/><rect class="cls-1" x="464.2" y="422.95" width="9.87" height="9.84"/><rect class="cls-1" x="464.2" y="413.11" width="9.87" height="9.84"/><rect class="cls-1" x="464.2" y="393.44" width="9.87" height="9.84"/><rect class="cls-2" x="464.2" y="363.93" width="9.87" height="9.84"/><rect class="cls-2" x="464.2" y="285.24" width="9.87" height="9.84"/><rect class="cls-1" x="454.32" y="422.95" width="9.88" height="9.84"/><rect class="cls-1" x="454.32" y="393.44" width="9.88" height="9.84"/><rect class="cls-2" x="454.32" y="285.24" width="9.88" height="9.84"/><rect class="cls-1" x="444.44" y="422.95" width="9.88" height="9.84"/><rect class="cls-1" x="444.44" y="413.11" width="9.88" height="9.84"/><rect class="cls-1" x="444.44" y="403.28" width="9.88" height="9.83"/><rect class="cls-1" x="444.44" y="393.44" width="9.88" height="9.84"/><rect class="cls-2" x="444.44" y="285.24" width="9.88" height="9.84"/><rect class="cls-2" x="434.57" y="383.61" width="9.87" height="9.83"/><rect class="cls-2" x="434.57" y="373.77" width="9.87" height="9.84"/><rect class="cls-2" x="434.57" y="363.93" width="9.87" height="9.84"/><rect class="cls-2" x="434.57" y="324.59" width="9.87" height="9.83"/><rect class="cls-2" x="434.57" y="314.75" width="9.87" height="9.84"/><rect class="cls-2" x="434.57" y="304.92" width="9.87" height="9.83"/><rect class="cls-2" x="434.57" y="285.24" width="9.87" height="9.84"/><rect class="cls-1" x="424.69" y="413.11" width="9.88" height="9.84"/><rect class="cls-1" x="424.69" y="403.28" width="9.88" height="9.83"/><rect class="cls-2" x="424.69" y="363.93" width="9.88" height="9.84"/><rect class="cls-2" x="424.69" y="354.1" width="9.88" height="9.83"/><rect class="cls-2" x="424.69" y="344.26" width="9.88" height="9.84"/><rect class="cls-2" x="424.69" y="334.42" width="9.88" height="9.84"/><rect class="cls-2" x="424.69" y="324.59" width="9.88" height="9.83"/><rect class="cls-1" x="414.81" y="413.11" width="9.88" height="9.84"/><rect class="cls-1" x="414.81" y="403.28" width="9.88" height="9.83"/><rect class="cls-1" x="395.06" y="422.95" width="9.88" height="9.84"/><rect class="cls-1" x="395.06" y="413.11" width="9.88" height="9.84"/><rect class="cls-1" x="395.06" y="403.28" width="9.88" height="9.83"/><rect class="cls-2" x="395.06" y="363.93" width="9.88" height="9.84"/><rect class="cls-1" x="385.19" y="393.44" width="9.87" height="9.84"/><rect class="cls-2" x="385.19" y="363.93" width="9.87" height="9.84"/><rect class="cls-2" x="385.19" y="354.1" width="9.87" height="9.83"/><rect class="cls-2" x="385.19" y="344.26" width="9.87" height="9.84"/><rect class="cls-2" x="385.19" y="334.42" width="9.87" height="9.84"/><rect class="cls-2" x="385.19" y="324.59" width="9.87" height="9.83"/><rect class="cls-2" x="385.19" y="314.75" width="9.87" height="9.84"/><rect class="cls-1" x="375.31" y="422.95" width="9.88" height="9.84"/><rect class="cls-1" x="375.31" y="413.11" width="9.88" height="9.84"/><rect class="cls-1" x="375.31" y="393.44" width="9.88" height="9.84"/><rect class="cls-1" x="345.68" y="422.95" width="9.88" height="9.84"/><rect class="cls-1" x="345.68" y="413.11" width="9.88" height="9.84"/><rect class="cls-1" x="345.68" y="403.28" width="9.88" height="9.83"/><rect class="cls-1" x="345.68" y="393.44" width="9.88" height="9.84"/><rect class="cls-1" x="335.8" y="422.95" width="9.88" height="9.84"/><rect class="cls-1" x="335.8" y="413.11" width="9.88" height="9.84"/><rect class="cls-1" x="335.8" y="393.44" width="9.88" height="9.84"/><rect class="cls-1" x="325.93" y="422.95" width="9.87" height="9.84"/><rect class="cls-1" x="325.93" y="393.44" width="9.87" height="9.84"/><rect class="cls-2" x="325.93" y="363.93" width="9.87" height="9.84"/><rect class="cls-1" x="316.05" y="422.95" width="9.88" height="9.84"/><rect class="cls-1" x="316.05" y="413.11" width="9.88" height="9.84"/><rect class="cls-1" x="316.05" y="403.28" width="9.88" height="9.83"/><rect class="cls-1" x="316.05" y="393.44" width="9.88" height="9.84"/><rect class="cls-2" x="316.05" y="363.93" width="9.88" height="9.84"/><rect class="cls-2" x="316.05" y="354.1" width="9.88" height="9.83"/><rect class="cls-2" x="316.05" y="344.26" width="9.88" height="9.84"/><rect class="cls-2" x="316.05" y="334.42" width="9.88" height="9.84"/><rect class="cls-2" x="316.05" y="324.59" width="9.88" height="9.83"/><rect class="cls-2" x="316.05" y="314.75" width="9.88" height="9.84"/><rect class="cls-1" x="306.17" y="422.95" width="9.88" height="9.84"/><rect class="cls-1" x="306.17" y="413.11" width="9.88" height="9.84"/><rect class="cls-1" x="306.17" y="403.28" width="9.88" height="9.83"/><rect class="cls-1" x="306.17" y="393.44" width="9.88" height="9.84"/><rect class="cls-1" x="296.3" y="422.95" width="9.87" height="9.84"/><rect class="cls-1" x="296.3" y="393.44" width="9.87" height="9.84"/><rect class="cls-1" x="286.42" y="422.95" width="9.88" height="9.84"/><rect class="cls-1" x="286.42" y="413.11" width="9.88" height="9.84"/><rect class="cls-1" x="286.42" y="393.44" width="9.88" height="9.84"/><rect class="cls-1" x="276.54" y="422.95" width="9.88" height="9.84"/><rect class="cls-1" x="276.54" y="413.11" width="9.88" height="9.84"/><rect class="cls-1" x="276.54" y="403.28" width="9.88" height="9.83"/><rect class="cls-1" x="276.54" y="393.44" width="9.88" height="9.84"/><rect class="cls-1" x="256.79" y="422.95" width="9.88" height="9.84"/><rect class="cls-1" x="256.79" y="413.11" width="9.88" height="9.84"/><rect class="cls-1" x="256.79" y="403.28" width="9.88" height="9.83"/><rect class="cls-1" x="256.79" y="393.44" width="9.88" height="9.84"/><rect class="cls-1" x="246.91" y="422.95" width="9.88" height="9.84"/><rect class="cls-1" x="246.91" y="413.11" width="9.88" height="9.84"/><rect class="cls-1" x="246.91" y="403.28" width="9.88" height="9.83"/><rect class="cls-1" x="246.91" y="393.44" width="9.88" height="9.84"/><rect class="cls-1" x="237.04" y="413.11" width="9.87" height="9.84"/><rect class="cls-1" x="237.04" y="403.28" width="9.87" height="9.83"/><rect class="cls-1" x="237.04" y="393.44" width="9.87" height="9.84"/><rect class="cls-2" x="237.04" y="354.1" width="9.87" height="9.83"/><rect class="cls-2" x="237.04" y="344.26" width="9.87" height="9.84"/><rect class="cls-2" x="237.04" y="334.42" width="9.87" height="9.84"/><rect class="cls-2" x="237.04" y="324.59" width="9.87" height="9.83"/><rect class="cls-2" x="237.04" y="314.75" width="9.87" height="9.84"/><rect class="cls-2" x="237.04" y="304.92" width="9.87" height="9.83"/><rect class="cls-1" x="227.16" y="413.11" width="9.88" height="9.84"/><rect class="cls-1" x="227.16" y="403.28" width="9.88" height="9.83"/><rect class="cls-2" x="227.16" y="354.1" width="9.88" height="9.83"/><rect class="cls-1" x="217.28" y="413.11" width="9.88" height="9.84"/><rect class="cls-1" x="217.28" y="403.28" width="9.88" height="9.83"/><rect class="cls-1" x="207.41" y="413.11" width="9.87" height="9.84"/><rect class="cls-2" x="197.53" y="354.1" width="9.88" height="9.83"/><rect class="cls-2" x="197.53" y="344.26" width="9.88" height="9.84"/><rect class="cls-2" x="197.53" y="334.42" width="9.88" height="9.84"/><rect class="cls-2" x="197.53" y="324.59" width="9.88" height="9.83"/><rect class="cls-2" x="197.53" y="314.75" width="9.88" height="9.84"/><rect class="cls-2" x="187.65" y="354.1" width="9.88" height="9.83"/><polygon class="cls-3" points="671.6 334.42 671.6 324.59 671.6 314.75 671.6 304.92 671.6 295.08 661.73 295.08 661.73 304.92 661.73 314.75 661.73 324.59 661.73 334.42 661.73 344.26 661.73 354.1 661.73 363.93 661.73 373.77 671.6 373.77 681.48 373.77 681.48 363.93 681.48 354.1 681.48 344.26 681.48 334.42 671.6 334.42"/><polygon class="cls-3" points="661.73 265.57 651.85 265.57 641.98 265.57 641.98 255.74 632.1 255.74 622.22 255.74 622.22 245.9 612.35 245.9 612.35 255.74 602.47 255.74 602.47 265.57 592.59 265.57 582.72 265.57 582.72 275.41 592.59 275.41 602.47 275.41 612.35 275.41 622.22 275.41 632.1 275.41 641.98 275.41 651.85 275.41 661.73 275.41 661.73 265.57"/><polygon class="cls-3" points="641.98 354.1 641.98 344.26 641.98 334.42 641.98 324.59 641.98 314.75 641.98 304.92 641.98 295.08 632.1 295.08 632.1 304.92 632.1 314.75 632.1 324.59 632.1 334.42 632.1 344.26 632.1 354.1 632.1 363.93 632.1 373.77 641.98 373.77 651.85 373.77 651.85 363.93 641.98 363.93 641.98 354.1"/><polygon class="cls-3" points="592.59 295.08 592.59 304.92 592.59 314.75 592.59 324.59 592.59 334.42 592.59 344.26 592.59 354.1 582.72 354.1 582.72 363.93 582.72 373.77 592.59 373.77 602.47 373.77 612.35 373.77 612.35 363.93 612.35 354.1 612.35 344.26 612.35 334.42 612.35 324.59 612.35 314.75 612.35 304.92 612.35 295.08 602.47 295.08 592.59 295.08"/><polygon class="cls-3" points="592.59 255.74 592.59 245.9 602.47 245.9 602.47 236.06 592.59 236.06 582.72 236.06 572.84 236.06 562.96 236.06 562.96 245.9 553.09 245.9 543.21 245.9 543.21 255.74 533.33 255.74 523.46 255.74 513.58 255.74 503.7 255.74 493.83 255.74 483.95 255.74 474.07 255.74 474.07 265.57 474.07 275.41 464.2 275.41 454.32 275.41 444.44 275.41 434.57 275.41 424.69 275.41 414.81 275.41 404.94 275.41 395.06 275.41 385.19 275.41 375.31 275.41 365.43 275.41 355.56 275.41 345.68 275.41 335.8 275.41 325.93 275.41 316.05 275.41 316.05 285.24 325.93 285.24 335.8 285.24 345.68 285.24 355.56 285.24 365.43 285.24 365.43 295.08 375.31 295.08 385.19 295.08 395.06 295.08 395.06 285.24 404.94 285.24 414.81 285.24 424.69 285.24 434.57 285.24 444.44 285.24 454.32 285.24 464.2 285.24 474.07 285.24 483.95 285.24 483.95 275.41 493.83 275.41 503.7 275.41 513.58 275.41 523.46 275.41 533.33 275.41 543.21 275.41 553.09 275.41 553.09 265.57 553.09 255.74 562.96 255.74 572.84 255.74 582.72 255.74 592.59 255.74"/><polygon class="cls-3" points="562.96 354.1 562.96 363.93 562.96 373.77 572.84 373.77 572.84 363.93 572.84 354.1 572.84 344.26 572.84 334.42 572.84 324.59 572.84 314.75 572.84 304.92 572.84 295.08 562.96 295.08 553.09 295.08 553.09 304.92 553.09 314.75 553.09 324.59 553.09 334.42 553.09 344.26 562.96 344.26 562.96 354.1"/><rect class="cls-3" x="562.96" y="275.41" width="9.88" height="9.83"/><polygon class="cls-3" points="493.83 236.06 503.7 236.06 513.58 236.06 523.46 236.06 523.46 226.23 533.33 226.23 543.21 226.23 553.09 226.23 553.09 216.39 562.96 216.39 572.84 216.39 582.72 216.39 592.59 216.39 592.59 206.56 582.72 206.56 572.84 206.56 562.96 206.56 553.09 206.56 543.21 206.56 533.33 206.56 533.33 216.39 523.46 216.39 513.58 216.39 503.7 216.39 503.7 226.23 493.83 226.23 483.95 226.23 474.07 226.23 474.07 236.06 483.95 236.06 493.83 236.06"/><path class="cls-3" d="M474.07,295.08h-39.5v9.84h9.87v29.5h-9.87v29.51h9.87v19.68h69.14v-9.84h39.51V344.26h-9.88v-59H484v9.84Zm0,78.69H464.2v-59H484v59Zm39.51-9.84H503.7v-59h19.76v59Z"/><path class="cls-3" d="M424.69,363.93V324.59h9.88v-9.84H414.81v-9.83H355.56v9.83h-9.88v29.51h9.88v29.51h9.87v9.84h39.51v9.83h29.63V373.77h-9.88Zm-29.63,9.84h-9.87v-59h19.75v59Z"/><polygon class="cls-3" points="424.69 245.9 424.69 236.06 434.57 236.06 444.44 236.06 454.32 236.06 454.32 226.23 444.44 226.23 434.57 226.23 434.57 216.39 434.57 206.56 434.57 196.72 424.69 196.72 414.81 196.72 414.81 206.56 414.81 216.39 414.81 226.23 414.81 236.06 414.81 245.9 414.81 255.74 424.69 255.74 424.69 245.9"/><polygon class="cls-3" points="404.94 59.01 404.94 49.18 395.06 49.18 395.06 39.34 385.19 39.34 385.19 49.18 385.19 59.01 395.06 59.01 404.94 59.01"/><polygon class="cls-3" points="375.31 108.2 385.19 108.2 395.06 108.2 404.94 108.2 404.94 98.36 395.06 98.36 385.19 98.36 375.31 98.36 375.31 88.52 365.43 88.52 365.43 98.36 365.43 108.2 365.43 118.03 375.31 118.03 375.31 108.2"/><polygon class="cls-3" points="355.56 265.57 365.43 265.57 375.31 265.57 375.31 255.74 365.43 255.74 365.43 245.9 355.56 245.9 355.56 236.06 355.56 226.23 355.56 216.39 355.56 206.56 345.68 206.56 345.68 216.39 345.68 226.23 345.68 236.06 345.68 245.9 345.68 255.74 355.56 255.74 355.56 265.57"/><polygon class="cls-3" points="365.43 157.38 375.31 157.38 385.19 157.38 385.19 167.21 395.06 167.21 404.94 167.21 404.94 157.38 395.06 157.38 395.06 147.54 385.19 147.54 375.31 147.54 375.31 137.7 365.43 137.7 365.43 127.87 355.56 127.87 355.56 137.7 355.56 147.54 355.56 157.38 355.56 167.21 365.43 167.21 365.43 157.38"/><polygon class="cls-3" points="335.8 363.93 335.8 373.77 325.93 373.77 316.05 373.77 316.05 363.93 316.05 354.1 316.05 344.26 316.05 334.42 316.05 324.59 316.05 314.75 306.17 314.75 296.3 314.75 296.3 304.92 306.17 304.92 316.05 304.92 325.93 304.92 335.8 304.92 345.68 304.92 345.68 295.08 335.8 295.08 325.93 295.08 316.05 295.08 306.17 295.08 306.17 285.24 296.3 285.24 286.42 285.24 276.54 285.24 276.54 295.08 276.54 304.92 276.54 314.75 276.54 324.59 276.54 334.42 276.54 344.26 276.54 354.1 276.54 363.93 276.54 373.77 276.54 383.61 286.42 383.61 296.3 383.61 306.17 383.61 316.05 383.61 316.05 393.44 325.93 393.44 335.8 393.44 345.68 393.44 345.68 383.61 345.68 373.77 345.68 363.93 345.68 354.1 335.8 354.1 335.8 363.93"/><polygon class="cls-3" points="286.42 275.41 296.3 275.41 296.3 265.57 286.42 265.57 276.54 265.57 266.67 265.57 256.79 265.57 246.91 265.57 246.91 275.41 256.79 275.41 266.67 275.41 266.67 285.24 276.54 285.24 276.54 275.41 286.42 275.41"/><polygon class="cls-3" points="246.91 383.61 237.04 383.61 237.04 393.44 246.91 393.44 256.79 393.44 266.67 393.44 266.67 383.61 256.79 383.61 246.91 383.61"/><polygon class="cls-3" points="246.91 285.24 246.91 295.08 237.04 295.08 227.16 295.08 227.16 304.92 237.04 304.92 246.91 304.92 246.91 314.75 246.91 324.59 246.91 334.42 246.91 344.26 246.91 354.1 246.91 363.93 237.04 363.93 227.16 363.93 227.16 354.1 227.16 344.26 227.16 334.42 227.16 324.59 227.16 314.75 217.28 314.75 207.41 314.75 207.41 324.59 207.41 334.42 207.41 344.26 207.41 354.1 207.41 363.93 197.53 363.93 187.65 363.93 187.65 354.1 177.78 354.1 177.78 363.93 177.78 373.77 187.65 373.77 197.53 373.77 197.53 383.61 207.41 383.61 217.28 383.61 227.16 383.61 227.16 373.77 237.04 373.77 246.91 373.77 256.79 373.77 266.67 373.77 266.67 363.93 266.67 354.1 266.67 344.26 266.67 334.42 266.67 324.59 266.67 314.75 266.67 304.92 266.67 295.08 266.67 285.24 256.79 285.24 246.91 285.24"/><polygon class="cls-3" points="237.04 285.24 237.04 275.41 237.04 265.57 227.16 265.57 217.28 265.57 207.41 265.57 207.41 275.41 197.53 275.41 197.53 285.24 187.65 285.24 187.65 295.08 197.53 295.08 207.41 295.08 217.28 295.08 227.16 295.08 227.16 285.24 237.04 285.24"/><polygon class="cls-4" points="691.36 324.59 691.36 334.42 691.36 344.26 691.36 354.1 691.36 363.93 701.23 363.93 701.23 354.1 701.23 344.26 701.23 334.42 701.23 324.59 691.36 324.59"/><polygon class="cls-4" points="691.36 304.92 691.36 295.08 681.48 295.08 681.48 304.92 681.48 314.75 681.48 324.59 691.36 324.59 691.36 314.75 691.36 304.92"/><polygon class="cls-4" points="671.6 285.24 661.73 285.24 651.85 285.24 641.98 285.24 632.1 285.24 622.22 285.24 612.35 285.24 602.47 285.24 592.59 285.24 582.72 285.24 572.84 285.24 562.96 285.24 553.09 285.24 553.09 295.08 562.96 295.08 572.84 295.08 572.84 304.92 572.84 314.75 572.84 324.59 572.84 334.42 572.84 344.26 582.72 344.26 582.72 334.42 582.72 324.59 582.72 314.75 582.72 304.92 582.72 295.08 592.59 295.08 602.47 295.08 612.35 295.08 622.22 295.08 622.22 304.92 622.22 314.75 622.22 324.59 622.22 334.42 622.22 344.26 622.22 354.1 622.22 363.93 622.22 373.77 632.1 373.77 632.1 363.93 632.1 354.1 632.1 344.26 632.1 334.42 632.1 324.59 632.1 314.75 632.1 304.92 632.1 295.08 641.98 295.08 651.85 295.08 651.85 304.92 651.85 314.75 651.85 324.59 651.85 334.42 651.85 344.26 651.85 354.1 661.73 354.1 661.73 344.26 661.73 334.42 661.73 324.59 661.73 314.75 661.73 304.92 661.73 295.08 671.6 295.08 681.48 295.08 681.48 285.24 671.6 285.24"/><polygon class="cls-4" points="622.22 255.74 632.1 255.74 641.98 255.74 641.98 265.57 651.85 265.57 661.73 265.57 661.73 275.41 671.6 275.41 681.48 275.41 681.48 265.57 671.6 265.57 671.6 255.74 661.73 255.74 661.73 245.9 651.85 245.9 641.98 245.9 641.98 236.06 632.1 236.06 632.1 245.9 622.22 245.9 622.22 255.74"/><polygon class="cls-4" points="562.96 245.9 562.96 236.06 572.84 236.06 582.72 236.06 592.59 236.06 602.47 236.06 612.35 236.06 622.22 236.06 622.22 226.23 612.35 226.23 602.47 226.23 592.59 226.23 582.72 226.23 572.84 226.23 562.96 226.23 553.09 226.23 553.09 236.06 543.21 236.06 533.33 236.06 533.33 245.9 523.46 245.9 513.58 245.9 503.7 245.9 493.83 245.9 483.95 245.9 483.95 255.74 493.83 255.74 503.7 255.74 513.58 255.74 523.46 255.74 533.33 255.74 543.21 255.74 543.21 245.9 553.09 245.9 562.96 245.9"/><polygon class="cls-4" points="503.7 314.75 503.7 324.59 503.7 334.42 503.7 344.26 503.7 354.1 513.58 354.1 513.58 344.26 513.58 334.42 513.58 324.59 513.58 314.75 513.58 304.92 503.7 304.92 503.7 314.75"/><polygon class="cls-4" points="493.83 226.23 503.7 226.23 503.7 216.39 513.58 216.39 523.46 216.39 533.33 216.39 533.33 206.56 543.21 206.56 553.09 206.56 562.96 206.56 572.84 206.56 572.84 196.72 562.96 196.72 553.09 196.72 543.21 196.72 533.33 196.72 523.46 196.72 523.46 206.56 513.58 206.56 503.7 206.56 493.83 206.56 493.83 216.39 483.95 216.39 474.07 216.39 474.07 226.23 483.95 226.23 493.83 226.23"/><path class="cls-4" d="M474.07,236.06H464.2v-59H434.57v-9.84H414.81v9.84H385.19v-9.84h-9.88v9.84h-9.88v9.83H345.68v19.68h9.88v-9.84h9.87v39.34h-9.87v9.84h9.87v9.84h9.88v9.83h49.38v-9.83h-9.88v-59h19.76v-9.84h9.87v39.35h9.88v9.83H424.69v19.68H464.2V245.9H484v-9.84Zm-98.76-9.83V206.56h9.88v29.5h-9.88Z"/><polygon class="cls-4" points="464.2 324.59 464.2 334.42 464.2 344.26 464.2 354.1 464.2 363.93 474.07 363.93 474.07 354.1 474.07 344.26 474.07 334.42 474.07 324.59 474.07 314.75 464.2 314.75 464.2 324.59"/><rect class="cls-4" x="434.57" y="108.2" width="9.87" height="9.83"/><polygon class="cls-4" points="434.57 275.41 444.44 275.41 454.32 275.41 464.2 275.41 474.07 275.41 474.07 265.57 464.2 265.57 454.32 265.57 444.44 265.57 434.57 265.57 424.69 265.57 424.69 275.41 434.57 275.41"/><polygon class="cls-4" points="434.57 88.52 434.57 78.69 424.69 78.69 414.81 78.69 414.81 68.85 404.94 68.85 395.06 68.85 385.19 68.85 385.19 78.69 375.31 78.69 375.31 88.52 375.31 98.36 385.19 98.36 395.06 98.36 404.94 98.36 404.94 108.2 414.81 108.2 424.69 108.2 434.57 108.2 434.57 98.36 434.57 88.52"/><polygon class="cls-4" points="414.81 295.08 404.94 295.08 395.06 295.08 385.19 295.08 375.31 295.08 365.43 295.08 355.56 295.08 355.56 304.92 365.43 304.92 375.31 304.92 385.19 304.92 395.06 304.92 404.94 304.92 414.81 304.92 414.81 314.75 424.69 314.75 434.57 314.75 434.57 304.92 434.57 295.08 424.69 295.08 414.81 295.08"/><polygon class="cls-4" points="424.69 157.38 434.57 157.38 444.44 157.38 444.44 167.21 454.32 167.21 464.2 167.21 464.2 157.38 454.32 157.38 454.32 147.54 454.32 137.7 444.44 137.7 444.44 127.87 434.57 127.87 434.57 118.03 424.69 118.03 414.81 118.03 404.94 118.03 395.06 118.03 385.19 118.03 385.19 108.2 375.31 108.2 375.31 118.03 375.31 127.87 365.43 127.87 365.43 137.7 375.31 137.7 375.31 147.54 385.19 147.54 395.06 147.54 395.06 157.38 404.94 157.38 404.94 167.21 414.81 167.21 414.81 157.38 424.69 157.38"/><polygon class="cls-4" points="395.06 324.59 395.06 334.42 395.06 344.26 395.06 354.1 395.06 363.93 404.94 363.93 404.94 354.1 404.94 344.26 404.94 334.42 404.94 324.59 404.94 314.75 395.06 314.75 395.06 324.59"/><polygon class="cls-4" points="395.06 39.34 395.06 49.18 404.94 49.18 404.94 39.34 404.94 29.51 414.81 29.51 414.81 19.67 404.94 19.67 395.06 19.67 385.19 19.67 385.19 29.51 395.06 29.51 395.06 39.34"/><rect class="cls-4" x="395.06" width="9.88" height="9.83"/><polygon class="cls-4" points="355.56 265.57 345.68 265.57 335.8 265.57 325.93 265.57 316.05 265.57 306.17 265.57 306.17 255.74 296.3 255.74 286.42 255.74 276.54 255.74 266.67 255.74 256.79 255.74 246.91 255.74 246.91 265.57 256.79 265.57 266.67 265.57 276.54 265.57 286.42 265.57 296.3 265.57 296.3 275.41 306.17 275.41 316.05 275.41 325.93 275.41 335.8 275.41 345.68 275.41 355.56 275.41 355.56 265.57"/><polygon class="cls-4" points="325.93 304.92 316.05 304.92 306.17 304.92 296.3 304.92 296.3 314.75 306.17 314.75 316.05 314.75 325.93 314.75 325.93 324.59 325.93 334.42 325.93 344.26 325.93 354.1 325.93 363.93 335.8 363.93 335.8 354.1 345.68 354.1 345.68 344.26 345.68 334.42 345.68 324.59 345.68 314.75 345.68 304.92 335.8 304.92 325.93 304.92"/><polygon class="cls-4" points="217.28 304.92 207.41 304.92 197.53 304.92 187.65 304.92 177.78 304.92 177.78 314.75 177.78 324.59 177.78 334.42 177.78 344.26 177.78 354.1 187.65 354.1 197.53 354.1 197.53 344.26 197.53 334.42 197.53 324.59 197.53 314.75 207.41 314.75 217.28 314.75 227.16 314.75 227.16 324.59 227.16 334.42 227.16 344.26 227.16 354.1 237.04 354.1 237.04 344.26 237.04 334.42 237.04 324.59 237.04 314.75 237.04 304.92 227.16 304.92 217.28 304.92"/><polygon class="cls-5" points="701.23 383.61 701.23 373.77 691.36 373.77 681.48 373.77 671.6 373.77 661.73 373.77 651.85 373.77 641.98 373.77 632.1 373.77 622.22 373.77 612.35 373.77 602.47 373.77 592.59 373.77 582.72 373.77 572.84 373.77 562.96 373.77 562.96 363.93 562.96 354.1 562.96 344.26 553.09 344.26 553.09 354.1 553.09 363.93 553.09 373.77 543.21 373.77 533.33 373.77 523.46 373.77 513.58 373.77 513.58 383.61 523.46 383.61 533.33 383.61 543.21 383.61 553.09 383.61 553.09 393.44 553.09 403.28 562.96 403.28 562.96 393.44 562.96 383.61 572.84 383.61 582.72 383.61 592.59 383.61 602.47 383.61 612.35 383.61 622.22 383.61 632.1 383.61 641.98 383.61 651.85 383.61 661.73 383.61 671.6 383.61 681.48 383.61 691.36 383.61 691.36 393.44 701.23 393.44 701.23 403.28 701.23 413.11 701.23 422.95 691.36 422.95 681.48 422.95 681.48 432.79 691.36 432.79 701.23 432.79 711.11 432.79 711.11 422.95 711.11 413.11 711.11 403.28 711.11 393.44 711.11 383.61 701.23 383.61"/><polygon class="cls-5" points="661.73 432.79 651.85 432.79 641.98 432.79 632.1 432.79 622.22 432.79 622.22 442.62 632.1 442.62 641.98 442.62 651.85 442.62 661.73 442.62 671.6 442.62 681.48 442.62 681.48 432.79 671.6 432.79 661.73 432.79"/><polygon class="cls-5" points="602.47 442.62 592.59 442.62 582.72 442.62 572.84 442.62 572.84 432.79 572.84 422.95 572.84 413.11 562.96 413.11 562.96 422.95 562.96 432.79 562.96 442.62 562.96 452.46 572.84 452.46 582.72 452.46 592.59 452.46 602.47 452.46 612.35 452.46 622.22 452.46 622.22 442.62 612.35 442.62 602.47 442.62"/><polygon class="cls-5" points="562.96 275.41 562.96 265.57 572.84 265.57 572.84 255.74 562.96 255.74 553.09 255.74 553.09 265.57 553.09 275.41 553.09 285.24 562.96 285.24 562.96 275.41"/><polygon class="cls-5" points="553.09 324.59 553.09 314.75 553.09 304.92 553.09 295.08 553.09 285.24 543.21 285.24 543.21 295.08 543.21 304.92 543.21 314.75 543.21 324.59 543.21 334.42 543.21 344.26 553.09 344.26 553.09 334.42 553.09 324.59"/><polygon class="cls-5" points="533.33 442.62 523.46 442.62 513.58 442.62 513.58 432.79 503.7 432.79 493.83 432.79 483.95 432.79 474.07 432.79 464.2 432.79 454.32 432.79 444.44 432.79 434.57 432.79 434.57 442.62 444.44 442.62 454.32 442.62 464.2 442.62 474.07 442.62 483.95 442.62 493.83 442.62 503.7 442.62 503.7 452.46 513.58 452.46 523.46 452.46 533.33 452.46 543.21 452.46 553.09 452.46 553.09 442.62 543.21 442.62 533.33 442.62"/><polygon class="cls-5" points="474.07 383.61 464.2 383.61 454.32 383.61 444.44 383.61 444.44 393.44 454.32 393.44 464.2 393.44 474.07 393.44 483.95 393.44 493.83 393.44 493.83 383.61 483.95 383.61 474.07 383.61"/><polygon class="cls-5" points="464.2 196.72 464.2 206.56 464.2 216.39 464.2 226.23 464.2 236.06 474.07 236.06 474.07 226.23 474.07 216.39 474.07 206.56 474.07 196.72 474.07 186.88 474.07 177.05 464.2 177.05 464.2 186.88 464.2 196.72"/><polygon class="cls-5" points="444.44 265.57 454.32 265.57 464.2 265.57 474.07 265.57 474.07 255.74 483.95 255.74 483.95 245.9 474.07 245.9 464.2 245.9 464.2 255.74 454.32 255.74 444.44 255.74 434.57 255.74 424.69 255.74 424.69 265.57 434.57 265.57 444.44 265.57"/><polygon class="cls-5" points="434.57 196.72 434.57 206.56 434.57 216.39 434.57 226.23 444.44 226.23 444.44 216.39 444.44 206.56 444.44 196.72 444.44 186.88 434.57 186.88 434.57 196.72"/><polygon class="cls-5" points="434.57 98.36 434.57 108.2 444.44 108.2 444.44 118.03 434.57 118.03 434.57 127.87 444.44 127.87 444.44 137.7 454.32 137.7 454.32 147.54 454.32 157.38 464.2 157.38 464.2 147.54 464.2 137.7 464.2 127.87 454.32 127.87 454.32 118.03 454.32 108.2 454.32 98.36 444.44 98.36 444.44 88.52 444.44 78.69 434.57 78.69 434.57 88.52 434.57 98.36"/><polygon class="cls-5" points="424.69 422.95 414.81 422.95 404.94 422.95 404.94 432.79 414.81 432.79 424.69 432.79 434.57 432.79 434.57 422.95 424.69 422.95"/><polygon class="cls-5" points="434.57 167.21 434.57 177.05 444.44 177.05 454.32 177.05 464.2 177.05 464.2 167.21 454.32 167.21 444.44 167.21 444.44 157.38 434.57 157.38 424.69 157.38 414.81 157.38 414.81 167.21 424.69 167.21 434.57 167.21"/><polygon class="cls-5" points="424.69 108.2 414.81 108.2 404.94 108.2 395.06 108.2 385.19 108.2 385.19 118.03 395.06 118.03 404.94 118.03 414.81 118.03 424.69 118.03 434.57 118.03 434.57 108.2 424.69 108.2"/><polygon class="cls-5" points="414.81 393.44 404.94 393.44 404.94 403.28 414.81 403.28 424.69 403.28 434.57 403.28 434.57 393.44 424.69 393.44 414.81 393.44"/><polygon class="cls-5" points="414.81 295.08 424.69 295.08 434.57 295.08 434.57 285.24 424.69 285.24 414.81 285.24 404.94 285.24 395.06 285.24 395.06 295.08 404.94 295.08 414.81 295.08"/><polygon class="cls-5" points="404.94 275.41 414.81 275.41 424.69 275.41 424.69 265.57 414.81 265.57 404.94 265.57 395.06 265.57 385.19 265.57 375.31 265.57 365.43 265.57 355.56 265.57 355.56 275.41 365.43 275.41 375.31 275.41 385.19 275.41 395.06 275.41 404.94 275.41"/><rect class="cls-5" x="395.06" y="9.83" width="9.88" height="9.84"/><polygon class="cls-5" points="395.06 177.05 404.94 177.05 414.81 177.05 414.81 167.21 404.94 167.21 395.06 167.21 385.19 167.21 385.19 177.05 395.06 177.05"/><rect class="cls-5" x="385.19" y="29.51" width="9.87" height="9.83"/><polygon class="cls-5" points="375.31 216.39 375.31 226.23 375.31 236.06 385.19 236.06 385.19 226.23 385.19 216.39 385.19 206.56 375.31 206.56 375.31 216.39"/><polygon class="cls-5" points="365.43 383.61 365.43 373.77 355.56 373.77 355.56 363.93 355.56 354.1 355.56 344.26 345.68 344.26 345.68 354.1 345.68 363.93 345.68 373.77 345.68 383.61 345.68 393.44 355.56 393.44 355.56 403.28 355.56 413.11 355.56 422.95 355.56 432.79 345.68 432.79 335.8 432.79 325.93 432.79 316.05 432.79 306.17 432.79 296.3 432.79 286.42 432.79 276.54 432.79 276.54 422.95 276.54 413.11 276.54 403.28 276.54 393.44 286.42 393.44 296.3 393.44 306.17 393.44 316.05 393.44 316.05 383.61 306.17 383.61 296.3 383.61 286.42 383.61 276.54 383.61 276.54 373.77 276.54 363.93 276.54 354.1 276.54 344.26 276.54 334.42 276.54 324.59 276.54 314.75 276.54 304.92 276.54 295.08 276.54 285.24 266.67 285.24 266.67 295.08 266.67 304.92 266.67 314.75 266.67 324.59 266.67 334.42 266.67 344.26 266.67 354.1 266.67 363.93 266.67 373.77 256.79 373.77 246.91 373.77 237.04 373.77 227.16 373.77 227.16 383.61 217.28 383.61 207.41 383.61 197.53 383.61 197.53 393.44 207.41 393.44 217.28 393.44 227.16 393.44 237.04 393.44 237.04 383.61 246.91 383.61 256.79 383.61 266.67 383.61 266.67 393.44 266.67 403.28 266.67 413.11 266.67 422.95 266.67 432.79 256.79 432.79 246.91 432.79 246.91 442.62 256.79 442.62 266.67 442.62 276.54 442.62 286.42 442.62 296.3 442.62 306.17 442.62 316.05 442.62 325.93 442.62 335.8 442.62 345.68 442.62 355.56 442.62 365.43 442.62 375.31 442.62 385.19 442.62 385.19 432.79 375.31 432.79 365.43 432.79 365.43 422.95 365.43 413.11 365.43 403.28 365.43 393.44 375.31 393.44 385.19 393.44 385.19 383.61 375.31 383.61 365.43 383.61"/><polygon class="cls-5" points="375.31 127.87 375.31 118.03 365.43 118.03 365.43 108.2 365.43 98.36 365.43 88.52 375.31 88.52 375.31 78.69 385.19 78.69 385.19 68.85 395.06 68.85 404.94 68.85 414.81 68.85 414.81 78.69 424.69 78.69 434.57 78.69 434.57 68.85 424.69 68.85 424.69 59.01 414.81 59.01 414.81 49.18 414.81 39.34 414.81 29.51 404.94 29.51 404.94 39.34 404.94 49.18 404.94 59.01 395.06 59.01 385.19 59.01 375.31 59.01 375.31 68.85 365.43 68.85 365.43 78.69 355.56 78.69 355.56 88.52 355.56 98.36 355.56 108.2 355.56 118.03 355.56 127.87 365.43 127.87 375.31 127.87"/><polygon class="cls-5" points="355.56 206.56 355.56 216.39 355.56 226.23 355.56 236.06 365.43 236.06 365.43 226.23 365.43 216.39 365.43 206.56 365.43 196.72 355.56 196.72 355.56 206.56"/><polygon class="cls-5" points="345.68 255.74 345.68 245.9 345.68 236.06 345.68 226.23 345.68 216.39 345.68 206.56 345.68 196.72 345.68 186.88 355.56 186.88 365.43 186.88 365.43 177.05 375.31 177.05 375.31 167.21 385.19 167.21 385.19 157.38 375.31 157.38 365.43 157.38 365.43 167.21 355.56 167.21 355.56 157.38 355.56 147.54 355.56 137.7 355.56 127.87 345.68 127.87 345.68 137.7 345.68 147.54 345.68 157.38 345.68 167.21 345.68 177.05 335.8 177.05 335.8 186.88 335.8 196.72 335.8 206.56 335.8 216.39 335.8 226.23 335.8 236.06 335.8 245.9 335.8 255.74 325.93 255.74 316.05 255.74 306.17 255.74 306.17 265.57 316.05 265.57 325.93 265.57 335.8 265.57 345.68 265.57 355.56 265.57 355.56 255.74 345.68 255.74"/><polygon class="cls-5" points="296.3 285.24 306.17 285.24 306.17 295.08 316.05 295.08 325.93 295.08 335.8 295.08 345.68 295.08 345.68 304.92 345.68 314.75 355.56 314.75 355.56 304.92 355.56 295.08 355.56 285.24 345.68 285.24 335.8 285.24 325.93 285.24 316.05 285.24 316.05 275.41 306.17 275.41 296.3 275.41 286.42 275.41 276.54 275.41 276.54 285.24 286.42 285.24 296.3 285.24"/><polygon class="cls-5" points="256.79 275.41 246.91 275.41 246.91 265.57 246.91 255.74 256.79 255.74 266.67 255.74 276.54 255.74 286.42 255.74 296.3 255.74 296.3 245.9 286.42 245.9 276.54 245.9 266.67 245.9 256.79 245.9 246.91 245.9 237.04 245.9 237.04 255.74 227.16 255.74 217.28 255.74 207.41 255.74 207.41 265.57 217.28 265.57 227.16 265.57 237.04 265.57 237.04 275.41 237.04 285.24 227.16 285.24 227.16 295.08 237.04 295.08 246.91 295.08 246.91 285.24 256.79 285.24 266.67 285.24 266.67 275.41 256.79 275.41"/><polygon class="cls-5" points="237.04 422.95 227.16 422.95 217.28 422.95 207.41 422.95 197.53 422.95 197.53 432.79 207.41 432.79 217.28 432.79 227.16 432.79 237.04 432.79 246.91 432.79 246.91 422.95 237.04 422.95"/><polygon class="cls-5" points="207.41 295.08 207.41 304.92 217.28 304.92 227.16 304.92 227.16 295.08 217.28 295.08 207.41 295.08"/><rect class="cls-5" x="197.53" y="265.57" width="9.88" height="9.84"/><polygon class="cls-5" points="187.65 373.77 177.78 373.77 177.78 363.93 177.78 354.1 177.78 344.26 177.78 334.42 177.78 324.59 177.78 314.75 167.9 314.75 167.9 324.59 167.9 334.42 167.9 344.26 167.9 354.1 167.9 363.93 158.02 363.93 158.02 373.77 167.9 373.77 167.9 383.61 177.78 383.61 187.65 383.61 197.53 383.61 197.53 373.77 187.65 373.77"/><rect class="cls-5" x="187.65" y="275.41" width="9.88" height="9.83"/><rect class="cls-5" x="177.78" y="413.11" width="9.87" height="9.84"/><rect class="cls-5" x="177.78" y="285.24" width="9.87" height="9.84"/><rect class="cls-5" x="167.9" y="403.28" width="9.88" height="9.83"/><polygon class="cls-6" points="790.12 422.95 780.25 422.95 770.37 422.95 760.49 422.95 750.62 422.95 740.74 422.95 730.86 422.95 720.99 422.95 720.99 432.79 711.11 432.79 701.23 432.79 691.36 432.79 681.48 432.79 681.48 442.62 691.36 442.62 701.23 442.62 711.11 442.62 720.99 442.62 730.86 442.62 730.86 432.79 740.74 432.79 750.62 432.79 760.49 432.79 770.37 432.79 780.25 432.79 790.12 432.79 800 432.79 800 422.95 790.12 422.95"/><polygon class="cls-6" points="661.73 442.62 651.85 442.62 641.98 442.62 632.1 442.62 622.22 442.62 622.22 452.46 612.35 452.46 602.47 452.46 592.59 452.46 582.72 452.46 572.84 452.46 562.96 452.46 553.09 452.46 543.21 452.46 533.33 452.46 523.46 452.46 513.58 452.46 503.7 452.46 503.7 442.62 493.83 442.62 483.95 442.62 474.07 442.62 464.2 442.62 454.32 442.62 444.44 442.62 434.57 442.62 434.57 432.79 424.69 432.79 414.81 432.79 404.94 432.79 395.06 432.79 385.19 432.79 385.19 442.62 375.31 442.62 365.43 442.62 355.56 442.62 345.68 442.62 335.8 442.62 325.93 442.62 316.05 442.62 306.17 442.62 296.3 442.62 286.42 442.62 276.54 442.62 266.67 442.62 256.79 442.62 246.91 442.62 246.91 432.79 237.04 432.79 227.16 432.79 217.28 432.79 207.41 432.79 197.53 432.79 187.65 432.79 177.78 432.79 177.78 422.95 167.9 422.95 158.02 422.95 148.15 422.95 138.27 422.95 128.4 422.95 118.52 422.95 118.52 413.11 108.64 413.11 98.77 413.11 88.89 413.11 79.01 413.11 79.01 422.95 69.14 422.95 59.26 422.95 49.38 422.95 49.38 432.79 39.51 432.79 29.63 432.79 29.63 422.95 19.75 422.95 9.88 422.95 0 422.95 0 432.79 9.88 432.79 19.75 432.79 19.75 442.62 29.63 442.62 39.51 442.62 49.38 442.62 59.26 442.62 69.14 442.62 79.01 442.62 88.89 442.62 98.77 442.62 98.77 432.79 108.64 432.79 118.52 432.79 128.4 432.79 138.27 432.79 138.27 442.62 148.15 442.62 158.02 442.62 167.9 442.62 167.9 452.46 177.78 452.46 187.65 452.46 197.53 452.46 207.41 452.46 207.41 442.62 217.28 442.62 227.16 442.62 227.16 452.46 237.04 452.46 246.91 452.46 256.79 452.46 256.79 462.29 266.67 462.29 276.54 462.29 286.42 462.29 296.3 462.29 306.17 462.29 316.05 462.29 325.93 462.29 335.8 462.29 335.8 452.46 345.68 452.46 355.56 452.46 365.43 452.46 375.31 452.46 385.19 452.46 395.06 452.46 404.94 452.46 414.81 452.46 424.69 452.46 434.57 452.46 444.44 452.46 454.32 452.46 464.2 452.46 474.07 452.46 483.95 452.46 483.95 462.29 493.83 462.29 503.7 462.29 513.58 462.29 523.46 462.29 533.33 462.29 543.21 462.29 553.09 462.29 562.96 462.29 572.84 462.29 582.72 462.29 592.59 462.29 602.47 462.29 612.35 462.29 622.22 462.29 632.1 462.29 632.1 452.46 641.98 452.46 651.85 452.46 661.73 452.46 671.6 452.46 681.48 452.46 681.48 442.62 671.6 442.62 661.73 442.62"/><polygon class="cls-6" points="543.21 422.95 543.21 432.79 543.21 442.62 553.09 442.62 553.09 432.79 562.96 432.79 562.96 422.95 562.96 413.11 553.09 413.11 553.09 422.95 543.21 422.95"/><polygon class="cls-6" points="503.7 403.28 503.7 393.44 513.58 393.44 523.46 393.44 533.33 393.44 543.21 393.44 543.21 403.28 543.21 413.11 553.09 413.11 553.09 403.28 553.09 393.44 553.09 383.61 543.21 383.61 533.33 383.61 523.46 383.61 513.58 383.61 503.7 383.61 493.83 383.61 493.83 393.44 483.95 393.44 483.95 403.28 493.83 403.28 503.7 403.28"/><polygon class="cls-6" points="444.44 422.95 444.44 413.11 444.44 403.28 444.44 393.44 434.57 393.44 434.57 403.28 434.57 413.11 434.57 422.95 434.57 432.79 444.44 432.79 444.44 422.95"/><polygon class="cls-6" points="404.94 422.95 414.81 422.95 414.81 413.11 414.81 403.28 404.94 403.28 404.94 413.11 404.94 422.95"/><polygon class="cls-6" points="395.06 403.28 404.94 403.28 404.94 393.44 404.94 383.61 395.06 383.61 385.19 383.61 385.19 393.44 395.06 393.44 395.06 403.28"/><polygon class="cls-6" points="375.31 422.95 375.31 413.11 375.31 403.28 375.31 393.44 365.43 393.44 365.43 403.28 365.43 413.11 365.43 422.95 365.43 432.79 375.31 432.79 375.31 422.95"/><rect class="cls-6" x="296.3" y="413.11" width="9.87" height="9.84"/><polygon class="cls-7" points="790.12 432.79 780.25 432.79 770.37 432.79 760.49 432.79 750.62 432.79 740.74 432.79 730.86 432.79 730.86 442.62 720.99 442.62 711.11 442.62 701.23 442.62 691.36 442.62 681.48 442.62 681.48 452.46 671.6 452.46 661.73 452.46 651.85 452.46 641.98 452.46 632.1 452.46 632.1 462.29 622.22 462.29 612.35 462.29 602.47 462.29 592.59 462.29 582.72 462.29 572.84 462.29 562.96 462.29 553.09 462.29 543.21 462.29 533.33 462.29 523.46 462.29 513.58 462.29 503.7 462.29 493.83 462.29 483.95 462.29 483.95 452.46 474.07 452.46 464.2 452.46 454.32 452.46 444.44 452.46 434.57 452.46 424.69 452.46 414.81 452.46 404.94 452.46 395.06 452.46 385.19 452.46 375.31 452.46 365.43 452.46 355.56 452.46 345.68 452.46 335.8 452.46 335.8 462.29 325.93 462.29 316.05 462.29 306.17 462.29 296.3 462.29 286.42 462.29 276.54 462.29 266.67 462.29 256.79 462.29 256.79 452.46 246.91 452.46 237.04 452.46 227.16 452.46 227.16 442.62 217.28 442.62 207.41 442.62 207.41 452.46 197.53 452.46 187.65 452.46 177.78 452.46 167.9 452.46 167.9 442.62 158.02 442.62 148.15 442.62 138.27 442.62 138.27 432.79 128.4 432.79 118.52 432.79 108.64 432.79 98.77 432.79 98.77 442.62 88.89 442.62 79.01 442.62 69.14 442.62 59.26 442.62 49.38 442.62 39.51 442.62 29.63 442.62 19.75 442.62 19.75 432.79 9.88 432.79 0 432.79 0 442.62 0 452.46 0 462.29 0 472.13 0 481.97 0 491.8 0 501.64 0 511.47 0 521.31 9.88 521.31 19.75 521.31 29.63 521.31 39.51 521.31 49.38 521.31 59.26 521.31 69.14 521.31 79.01 521.31 88.89 521.31 98.77 521.31 108.64 521.31 118.52 521.31 128.4 521.31 138.27 521.31 148.15 521.31 158.02 521.31 167.9 521.31 177.78 521.31 187.65 521.31 197.53 521.31 207.41 521.31 217.28 521.31 227.16 521.31 237.04 521.31 246.91 521.31 256.79 521.31 266.67 521.31 276.54 521.31 286.42 521.31 296.3 521.31 306.17 521.31 316.05 521.31 325.93 521.31 335.8 521.31 345.68 521.31 355.56 521.31 365.43 521.31 375.31 521.31 385.19 521.31 395.06 521.31 404.94 521.31 414.81 521.31 424.69 521.31 434.57 521.31 444.44 521.31 454.32 521.31 464.2 521.31 474.07 521.31 483.95 521.31 493.83 521.31 503.7 521.31 513.58 521.31 523.46 521.31 533.33 521.31 543.21 521.31 553.09 521.31 562.96 521.31 572.84 521.31 582.72 521.31 592.59 521.31 602.47 521.31 612.35 521.31 622.22 521.31 632.1 521.31 641.98 521.31 651.85 521.31 661.73 521.31 671.6 521.31 681.48 521.31 691.36 521.31 701.23 521.31 711.11 521.31 720.99 521.31 730.86 521.31 740.74 521.31 750.62 521.31 760.49 521.31 770.37 521.31 780.25 521.31 790.12 521.31 800 521.31 800 511.47 800 501.64 800 491.8 800 481.97 800 472.13 800 462.29 800 452.46 800 442.62 800 432.79 790.12 432.79"/><rect class="cls-7" x="711.11" y="422.95" width="9.88" height="9.84"/><polygon class="cls-7" points="671.6 422.95 681.48 422.95 681.48 413.11 681.48 403.28 681.48 393.44 671.6 393.44 671.6 403.28 671.6 413.11 661.73 413.11 661.73 403.28 661.73 393.44 651.85 393.44 651.85 403.28 651.85 413.11 651.85 422.95 661.73 422.95 671.6 422.95"/><polygon class="cls-7" points="602.47 422.95 602.47 413.11 602.47 403.28 612.35 403.28 612.35 393.44 602.47 393.44 592.59 393.44 592.59 403.28 582.72 403.28 582.72 413.11 582.72 422.95 592.59 422.95 602.47 422.95"/><polygon class="cls-7" points="523.46 413.11 533.33 413.11 533.33 422.95 533.33 432.79 543.21 432.79 543.21 422.95 543.21 413.11 543.21 403.28 533.33 403.28 523.46 403.28 513.58 403.28 513.58 413.11 513.58 422.95 523.46 422.95 523.46 413.11"/><polygon class="cls-7" points="464.2 413.11 474.07 413.11 474.07 403.28 464.2 403.28 454.32 403.28 454.32 413.11 454.32 422.95 464.2 422.95 464.2 413.11"/><polygon class="cls-7" points="385.19 422.95 385.19 432.79 395.06 432.79 395.06 422.95 395.06 413.11 395.06 403.28 385.19 403.28 375.31 403.28 375.31 413.11 385.19 413.11 385.19 422.95"/><polygon class="cls-7" points="335.8 413.11 345.68 413.11 345.68 403.28 335.8 403.28 325.93 403.28 325.93 413.11 325.93 422.95 335.8 422.95 335.8 413.11"/><polygon class="cls-7" points="306.17 413.11 306.17 403.28 296.3 403.28 286.42 403.28 286.42 413.11 296.3 413.11 306.17 413.11"/><polygon class="cls-7" points="197.53 304.92 207.41 304.92 207.41 295.08 197.53 295.08 187.65 295.08 177.78 295.08 177.78 304.92 187.65 304.92 197.53 304.92"/><polygon class="cls-7" points="177.78 413.11 187.65 413.11 187.65 422.95 197.53 422.95 207.41 422.95 207.41 413.11 217.28 413.11 217.28 403.28 227.16 403.28 237.04 403.28 237.04 393.44 227.16 393.44 217.28 393.44 207.41 393.44 197.53 393.44 197.53 383.61 187.65 383.61 177.78 383.61 167.9 383.61 167.9 393.44 167.9 403.28 177.78 403.28 177.78 413.11"/></g></g></svg>