<svg xmlns="http://www.w3.org/2000/svg" viewBox="0 0 800 216.39"><defs><style>.cls-1{fill:#735e53;}.cls-2{fill:#1b4a40;}.cls-3{fill:#072c24;}.cls-4{fill:#468773;}</style></defs><title>foreground</title><g id="Layer_2" data-name="Layer 2"><g id="Layer_1-2" data-name="Layer 1"><rect class="cls-1" x="177.78" y="118.03" width="9.87" height="9.84"/><rect class="cls-1" x="69.14" y="118.03" width="9.87" height="9.84"/><rect class="cls-1" x="88.89" y="108.19" width="9.88" height="9.84"/><rect class="cls-2" x="790.12" y="196.72" width="9.88" height="9.83"/><rect class="cls-2" x="780.25" y="196.72" width="9.87" height="9.83"/><rect class="cls-2" x="770.37" y="196.72" width="9.88" height="9.83"/><rect class="cls-2" x="760.49" y="196.72" width="9.88" height="9.83"/><rect class="cls-2" x="750.62" y="196.72" width="9.87" height="9.83"/><rect class="cls-2" x="740.74" y="196.72" width="9.88" height="9.83"/><rect class="cls-2" x="730.86" y="186.88" width="9.88" height="9.84"/><rect class="cls-2" x="720.99" y="186.88" width="9.87" height="9.84"/><rect class="cls-2" x="711.11" y="186.88" width="9.88" height="9.84"/><rect class="cls-2" x="701.23" y="186.88" width="9.88" height="9.84"/><rect class="cls-2" x="691.36" y="186.88" width="9.87" height="9.84"/><rect class="cls-2" x="681.48" y="186.88" width="9.88" height="9.84"/><rect class="cls-2" x="671.6" y="186.88" width="9.88" height="9.84"/><rect class="cls-2" x="661.73" y="186.88" width="9.87" height="9.84"/><rect class="cls-2" x="651.85" y="186.88" width="9.88" height="9.84"/><rect class="cls-2" x="641.98" y="186.88" width="9.87" height="9.84"/><rect class="cls-2" x="632.1" y="186.88" width="9.88" height="9.84"/><rect class="cls-2" x="622.22" y="186.88" width="9.88" height="9.84"/><rect class="cls-2" x="612.35" y="186.88" width="9.87" height="9.84"/><rect class="cls-2" x="602.47" y="186.88" width="9.88" height="9.84"/><rect class="cls-2" x="592.59" y="186.88" width="9.88" height="9.84"/><rect class="cls-2" x="582.72" y="186.88" width="9.87" height="9.84"/><rect class="cls-2" x="582.72" y="177.05" width="9.87" height="9.83"/><rect class="cls-2" x="572.84" y="177.05" width="9.88" height="9.83"/><rect class="cls-2" x="562.96" y="177.05" width="9.88" height="9.83"/><rect class="cls-2" x="553.09" y="177.05" width="9.87" height="9.83"/><rect class="cls-2" x="543.21" y="177.05" width="9.88" height="9.83"/><rect class="cls-2" x="533.33" y="177.05" width="9.88" height="9.83"/><rect class="cls-2" x="523.46" y="177.05" width="9.87" height="9.83"/><rect class="cls-2" x="513.58" y="167.21" width="9.88" height="9.84"/><rect class="cls-2" x="503.7" y="167.21" width="9.88" height="9.84"/><rect class="cls-2" x="493.83" y="167.21" width="9.87" height="9.84"/><rect class="cls-2" x="483.95" y="167.21" width="9.88" height="9.84"/><rect class="cls-2" x="474.07" y="167.21" width="9.88" height="9.84"/><rect class="cls-2" x="464.2" y="167.21" width="9.87" height="9.84"/><rect class="cls-2" x="454.32" y="167.21" width="9.88" height="9.84"/><rect class="cls-2" x="444.44" y="167.21" width="9.88" height="9.84"/><rect class="cls-2" x="424.69" y="167.21" width="9.88" height="9.84"/><rect class="cls-2" x="424.69" y="157.37" width="9.88" height="9.84"/><rect class="cls-2" x="414.81" y="157.37" width="9.88" height="9.84"/><rect class="cls-2" x="404.94" y="157.37" width="9.87" height="9.84"/><rect class="cls-2" x="395.06" y="157.37" width="9.88" height="9.84"/><rect class="cls-2" x="385.19" y="157.37" width="9.87" height="9.84"/><rect class="cls-2" x="375.31" y="157.37" width="9.88" height="9.84"/><rect class="cls-2" x="365.43" y="157.37" width="9.88" height="9.84"/><rect class="cls-2" x="355.56" y="157.37" width="9.87" height="9.84"/><rect class="cls-2" x="345.68" y="147.54" width="9.88" height="9.83"/><rect class="cls-2" x="335.8" y="147.54" width="9.88" height="9.83"/><rect class="cls-2" x="325.93" y="147.54" width="9.87" height="9.83"/><rect class="cls-2" x="316.05" y="147.54" width="9.88" height="9.83"/><rect class="cls-2" x="306.17" y="147.54" width="9.88" height="9.83"/><rect class="cls-2" x="296.3" y="147.54" width="9.87" height="9.83"/><rect class="cls-2" x="237.04" y="78.69" width="9.87" height="9.83"/><rect class="cls-2" x="237.04" y="68.85" width="9.87" height="9.84"/><rect class="cls-2" x="237.04" y="59.01" width="9.87" height="9.84"/><rect class="cls-2" x="237.04" y="49.18" width="9.87" height="9.83"/><rect class="cls-2" x="237.04" y="39.34" width="9.87" height="9.84"/><rect class="cls-2" x="227.16" y="88.52" width="9.88" height="9.84"/><rect class="cls-2" x="227.16" y="78.69" width="9.88" height="9.83"/><rect class="cls-2" x="227.16" y="39.34" width="9.88" height="9.84"/><rect class="cls-2" x="227.16" y="29.5" width="9.88" height="9.84"/><rect class="cls-2" x="217.28" y="88.52" width="9.88" height="9.84"/><rect class="cls-2" x="217.28" y="19.67" width="9.88" height="9.83"/><rect class="cls-2" x="207.41" y="98.36" width="9.87" height="9.83"/><rect class="cls-2" x="207.41" y="88.52" width="9.87" height="9.84"/><rect class="cls-2" x="207.41" y="19.67" width="9.87" height="9.83"/><rect class="cls-2" x="207.41" y="9.83" width="9.87" height="9.84"/><rect class="cls-2" x="197.53" y="147.54" width="9.88" height="9.83"/><rect class="cls-1" x="197.53" y="108.19" width="9.88" height="9.84"/><rect class="cls-2" x="197.53" y="98.36" width="9.88" height="9.83"/><rect class="cls-2" x="197.53" y="88.52" width="9.88" height="9.84"/><rect class="cls-2" x="197.53" y="9.83" width="9.88" height="9.84"/><rect class="cls-2" x="187.65" y="157.37" width="9.88" height="9.84"/><rect class="cls-1" x="187.65" y="147.54" width="9.88" height="9.83"/><rect class="cls-1" x="187.65" y="118.03" width="9.88" height="9.84"/><rect class="cls-1" x="187.65" y="108.19" width="9.88" height="9.84"/><rect class="cls-2" x="187.65" y="98.36" width="9.88" height="9.83"/><rect class="cls-2" x="187.65" y="9.83" width="9.88" height="9.84"/><rect class="cls-2" x="177.78" y="157.37" width="9.87" height="9.84"/><rect class="cls-1" x="177.78" y="147.54" width="9.87" height="9.83"/><rect class="cls-1" x="177.78" y="137.7" width="9.87" height="9.84"/><rect class="cls-1" x="177.78" y="127.87" width="9.87" height="9.83"/><rect class="cls-2" x="177.78" y="108.19" width="9.87" height="9.84"/><rect class="cls-2" x="177.78" y="98.36" width="9.87" height="9.83"/><rect class="cls-2" x="177.78" y="9.83" width="9.87" height="9.84"/><rect class="cls-2" x="167.9" y="157.37" width="9.88" height="9.84"/><rect class="cls-2" x="167.9" y="147.54" width="9.88" height="9.83"/><rect class="cls-2" x="167.9" y="108.19" width="9.88" height="9.84"/><rect class="cls-2" x="167.9" y="98.36" width="9.88" height="9.83"/><rect class="cls-2" x="167.9" y="88.52" width="9.88" height="9.84"/><rect class="cls-2" x="167.9" y="9.83" width="9.88" height="9.84"/><rect class="cls-2" x="167.9" width="9.88" height="9.83"/><rect class="cls-2" x="158.02" y="137.7" width="9.88" height="9.84"/><rect class="cls-2" x="158.02" y="108.19" width="9.88" height="9.84"/><rect class="cls-2" x="158.02" y="98.36" width="9.88" height="9.83"/><rect class="cls-2" x="158.02" y="88.52" width="9.88" height="9.84"/><rect class="cls-2" x="158.02" y="78.69" width="9.88" height="9.83"/><rect class="cls-2" x="158.02" width="9.88" height="9.83"/><rect class="cls-1" x="148.15" y="157.37" width="9.87" height="9.84"/><rect class="cls-1" x="148.15" y="147.54" width="9.87" height="9.83"/><rect class="cls-1" x="148.15" y="137.7" width="9.87" height="9.84"/><rect class="cls-1" x="148.15" y="127.87" width="9.87" height="9.83"/><rect class="cls-1" x="148.15" y="118.03" width="9.87" height="9.84"/><rect class="cls-2" x="148.15" y="108.19" width="9.87" height="9.84"/><rect class="cls-2" x="148.15" y="98.36" width="9.87" height="9.83"/><rect class="cls-2" x="148.15" y="88.52" width="9.87" height="9.84"/><rect class="cls-2" x="148.15" y="78.69" width="9.87" height="9.83"/><rect class="cls-2" x="148.15" y="68.85" width="9.87" height="9.84"/><rect class="cls-2" x="148.15" y="59.01" width="9.87" height="9.84"/><rect class="cls-2" x="148.15" y="9.83" width="9.87" height="9.84"/><rect class="cls-2" x="148.15" width="9.87" height="9.83"/><rect class="cls-1" x="138.27" y="157.37" width="9.88" height="9.84"/><rect class="cls-1" x="138.27" y="147.54" width="9.88" height="9.83"/><rect class="cls-3" x="138.27" y="108.19" width="9.88" height="9.84"/><rect class="cls-2" x="138.27" y="98.36" width="9.88" height="9.83"/><rect class="cls-2" x="138.27" y="88.52" width="9.88" height="9.84"/><rect class="cls-2" x="138.27" y="78.69" width="9.88" height="9.83"/><rect class="cls-2" x="138.27" y="68.85" width="9.88" height="9.84"/><rect class="cls-2" x="138.27" y="59.01" width="9.88" height="9.84"/><rect class="cls-2" x="138.27" y="29.5" width="9.88" height="9.84"/><rect class="cls-2" x="138.27" y="19.67" width="9.88" height="9.83"/><rect class="cls-2" x="138.27" y="9.83" width="9.88" height="9.84"/><rect class="cls-1" x="128.4" y="147.54" width="9.87" height="9.83"/><rect class="cls-1" x="128.4" y="137.7" width="9.87" height="9.84"/><rect class="cls-1" x="128.4" y="127.87" width="9.87" height="9.83"/><rect class="cls-3" x="128.4" y="108.19" width="9.87" height="9.84"/><rect class="cls-2" x="128.4" y="98.36" width="9.87" height="9.83"/><rect class="cls-2" x="128.4" y="88.52" width="9.87" height="9.84"/><rect class="cls-2" x="128.4" y="78.69" width="9.87" height="9.83"/><rect class="cls-2" x="128.4" y="68.85" width="9.87" height="9.84"/><rect class="cls-2" x="128.4" y="59.01" width="9.87" height="9.84"/><rect class="cls-2" x="128.4" y="49.18" width="9.87" height="9.83"/><rect class="cls-2" x="128.4" y="39.34" width="9.87" height="9.84"/><rect class="cls-2" x="128.4" y="29.5" width="9.87" height="9.84"/><rect class="cls-2" x="128.4" y="19.67" width="9.87" height="9.83"/><rect class="cls-2" x="128.4" y="9.83" width="9.87" height="9.84"/><rect class="cls-2" x="118.52" y="137.7" width="9.88" height="9.84"/><rect class="cls-1" x="118.52" y="127.87" width="9.88" height="9.83"/><rect class="cls-1" x="118.52" y="118.03" width="9.88" height="9.84"/><rect class="cls-3" x="118.52" y="108.19" width="9.88" height="9.84"/><rect class="cls-3" x="118.52" y="98.36" width="9.88" height="9.83"/><rect class="cls-2" x="118.52" y="88.52" width="9.88" height="9.84"/><rect class="cls-2" x="118.52" y="78.69" width="9.88" height="9.83"/><rect class="cls-2" x="118.52" y="68.85" width="9.88" height="9.84"/><rect class="cls-2" x="118.52" y="59.01" width="9.88" height="9.84"/><rect class="cls-2" x="118.52" y="49.18" width="9.88" height="9.83"/><rect class="cls-2" x="118.52" y="39.34" width="9.88" height="9.84"/><rect class="cls-2" x="118.52" y="29.5" width="9.88" height="9.84"/><rect class="cls-2" x="118.52" y="19.67" width="9.88" height="9.83"/><rect class="cls-2" x="108.64" y="137.7" width="9.88" height="9.84"/><rect class="cls-3" x="108.64" y="108.19" width="9.88" height="9.84"/><rect class="cls-3" x="108.64" y="98.36" width="9.88" height="9.83"/><rect class="cls-3" x="108.64" y="88.52" width="9.88" height="9.84"/><rect class="cls-2" x="108.64" y="78.69" width="9.88" height="9.83"/><rect class="cls-2" x="108.64" y="68.85" width="9.88" height="9.84"/><rect class="cls-2" x="108.64" y="59.01" width="9.88" height="9.84"/><rect class="cls-2" x="108.64" y="49.18" width="9.88" height="9.83"/><rect class="cls-2" x="108.64" y="39.34" width="9.88" height="9.84"/><rect class="cls-2" x="108.64" y="29.5" width="9.88" height="9.84"/><rect class="cls-2" x="108.64" y="19.67" width="9.88" height="9.83"/><rect class="cls-1" x="98.77" y="147.54" width="9.87" height="9.83"/><rect class="cls-2" x="98.77" y="137.7" width="9.87" height="9.84"/><rect class="cls-3" x="98.77" y="98.36" width="9.87" height="9.83"/><rect class="cls-3" x="98.77" y="88.52" width="9.87" height="9.84"/><rect class="cls-3" x="98.77" y="78.69" width="9.87" height="9.83"/><rect class="cls-2" x="98.77" y="68.85" width="9.87" height="9.84"/><rect class="cls-2" x="98.77" y="59.01" width="9.87" height="9.84"/><rect class="cls-2" x="98.77" y="49.18" width="9.87" height="9.83"/><rect class="cls-2" x="98.77" y="39.34" width="9.87" height="9.84"/><rect class="cls-2" x="98.77" y="29.5" width="9.87" height="9.84"/><rect class="cls-2" x="98.77" y="19.67" width="9.87" height="9.83"/><rect class="cls-1" x="88.89" y="147.54" width="9.88" height="9.83"/><rect class="cls-3" x="88.89" y="98.36" width="9.88" height="9.83"/><rect class="cls-3" x="88.89" y="88.52" width="9.88" height="9.84"/><rect class="cls-3" x="88.89" y="78.69" width="9.88" height="9.83"/><rect class="cls-3" x="88.89" y="68.85" width="9.88" height="9.84"/><rect class="cls-2" x="88.89" y="59.01" width="9.88" height="9.84"/><rect class="cls-2" x="88.89" y="49.18" width="9.88" height="9.83"/><rect class="cls-2" x="88.89" y="39.34" width="9.88" height="9.84"/><rect class="cls-2" x="88.89" y="29.5" width="9.88" height="9.84"/><rect class="cls-1" x="79.01" y="147.54" width="9.88" height="9.83"/><rect class="cls-1" x="79.01" y="137.7" width="9.88" height="9.84"/><rect class="cls-1" x="79.01" y="127.87" width="9.88" height="9.83"/><rect class="cls-1" x="79.01" y="118.03" width="9.88" height="9.84"/><rect class="cls-1" x="79.01" y="108.19" width="9.88" height="9.84"/><rect class="cls-2" x="79.01" y="78.69" width="9.88" height="9.83"/><rect class="cls-2" x="79.01" y="68.85" width="9.88" height="9.84"/><rect class="cls-2" x="79.01" y="59.01" width="9.88" height="9.84"/><rect class="cls-2" x="79.01" y="49.18" width="9.88" height="9.83"/><rect class="cls-2" x="79.01" y="39.34" width="9.88" height="9.84"/><rect class="cls-2" x="79.01" y="29.5" width="9.88" height="9.84"/><rect class="cls-1" x="69.14" y="147.54" width="9.87" height="9.83"/><rect class="cls-2" x="69.14" y="137.7" width="9.87" height="9.84"/><rect class="cls-2" x="69.14" y="108.19" width="9.87" height="9.84"/><rect class="cls-2" x="69.14" y="68.85" width="9.87" height="9.84"/><rect class="cls-2" x="69.14" y="59.01" width="9.87" height="9.84"/><rect class="cls-2" x="69.14" y="39.34" width="9.87" height="9.84"/><rect class="cls-2" x="69.14" y="29.5" width="9.87" height="9.84"/><rect class="cls-2" x="59.26" y="137.7" width="9.88" height="9.84"/><rect class="cls-2" x="59.26" y="118.03" width="9.88" height="9.84"/><rect class="cls-2" x="59.26" y="108.19" width="9.88" height="9.84"/><rect class="cls-2" x="59.26" y="98.36" width="9.88" height="9.83"/><rect class="cls-2" x="59.26" y="39.34" width="9.88" height="9.84"/><rect class="cls-1" x="49.38" y="147.54" width="9.88" height="9.83"/><rect class="cls-1" x="49.38" y="137.7" width="9.88" height="9.84"/><rect class="cls-2" x="49.38" y="118.03" width="9.88" height="9.84"/><rect class="cls-2" x="49.38" y="108.19" width="9.88" height="9.84"/><rect class="cls-2" x="49.38" y="98.36" width="9.88" height="9.83"/><rect class="cls-2" x="49.38" y="88.52" width="9.88" height="9.84"/><rect class="cls-2" x="49.38" y="49.18" width="9.88" height="9.83"/><rect class="cls-2" x="49.38" y="39.34" width="9.88" height="9.84"/><rect class="cls-1" x="39.51" y="137.7" width="9.87" height="9.84"/><rect class="cls-1" x="39.51" y="127.87" width="9.87" height="9.83"/><rect class="cls-3" x="39.51" y="118.03" width="9.87" height="9.84"/><rect class="cls-3" x="39.51" y="108.19" width="9.87" height="9.84"/><rect class="cls-2" x="39.51" y="98.36" width="9.87" height="9.83"/><rect class="cls-2" x="39.51" y="88.52" width="9.87" height="9.84"/><rect class="cls-2" x="39.51" y="78.69" width="9.87" height="9.83"/><rect class="cls-2" x="39.51" y="68.85" width="9.87" height="9.84"/><rect class="cls-2" x="39.51" y="59.01" width="9.87" height="9.84"/><rect class="cls-2" x="39.51" y="49.18" width="9.87" height="9.83"/><rect class="cls-2" x="29.63" y="137.7" width="9.88" height="9.84"/><rect class="cls-1" x="29.63" y="127.87" width="9.88" height="9.83"/><rect class="cls-1" x="29.63" y="118.03" width="9.88" height="9.84"/><rect class="cls-3" x="29.63" y="108.19" width="9.88" height="9.84"/><rect class="cls-2" x="29.63" y="98.36" width="9.88" height="9.83"/><rect class="cls-2" x="29.63" y="88.52" width="9.88" height="9.84"/><rect class="cls-2" x="29.63" y="78.69" width="9.88" height="9.83"/><rect class="cls-2" x="29.63" y="68.85" width="9.88" height="9.84"/><rect class="cls-2" x="29.63" y="59.01" width="9.88" height="9.84"/><rect class="cls-2" x="19.75" y="137.7" width="9.88" height="9.84"/><rect class="cls-1" x="19.75" y="118.03" width="9.88" height="9.84"/><rect class="cls-3" x="19.75" y="108.19" width="9.88" height="9.84"/><rect class="cls-2" x="19.75" y="98.36" width="9.88" height="9.83"/><rect class="cls-2" x="19.75" y="88.52" width="9.88" height="9.84"/><rect class="cls-2" x="19.75" y="78.69" width="9.88" height="9.83"/><rect class="cls-2" x="19.75" y="68.85" width="9.88" height="9.84"/><rect class="cls-3" x="19.75" y="59.01" width="9.88" height="9.84"/><rect class="cls-2" x="9.88" y="137.7" width="9.87" height="9.84"/><rect class="cls-3" x="9.88" y="108.19" width="9.87" height="9.84"/><rect class="cls-3" x="9.88" y="98.36" width="9.87" height="9.83"/><rect class="cls-2" x="9.88" y="88.52" width="9.87" height="9.84"/><rect class="cls-2" x="9.88" y="78.69" width="9.87" height="9.83"/><rect class="cls-2" x="9.88" y="68.85" width="9.87" height="9.84"/><rect class="cls-3" x="9.88" y="59.01" width="9.87" height="9.84"/><polygon class="cls-4" points="790.12 206.55 780.25 206.55 770.37 206.55 760.49 206.55 750.62 206.55 740.74 206.55 740.74 196.72 730.86 196.72 720.99 196.72 711.11 196.72 701.23 196.72 691.36 196.72 681.48 196.72 671.6 196.72 661.73 196.72 651.85 196.72 641.98 196.72 632.1 196.72 622.22 196.72 612.35 196.72 602.47 196.72 592.59 196.72 582.72 196.72 582.72 186.88 572.84 186.88 562.96 186.88 553.09 186.88 543.21 186.88 533.33 186.88 523.46 186.88 523.46 177.05 513.58 177.05 503.7 177.05 493.83 177.05 483.95 177.05 474.07 177.05 464.2 177.05 454.32 177.05 444.44 177.05 444.44 167.21 434.57 167.21 434.57 177.05 424.69 177.05 424.69 167.21 414.81 167.21 404.94 167.21 395.06 167.21 385.19 167.21 375.31 167.21 365.43 167.21 355.56 167.21 355.56 157.37 345.68 157.37 335.8 157.37 325.93 157.37 316.05 157.37 306.17 157.37 296.3 157.37 296.3 147.54 286.42 147.54 276.54 147.54 266.67 147.54 256.79 147.54 246.91 147.54 237.04 147.54 227.16 147.54 217.28 147.54 207.41 147.54 207.41 157.37 197.53 157.37 197.53 167.21 187.65 167.21 177.78 167.21 167.9 167.21 167.9 157.37 167.9 147.54 158.02 147.54 158.02 157.37 158.02 167.21 148.15 167.21 138.27 167.21 138.27 157.37 128.4 157.37 128.4 147.54 118.52 147.54 108.64 147.54 108.64 157.37 98.77 157.37 88.89 157.37 79.01 157.37 69.14 157.37 69.14 147.54 59.26 147.54 59.26 157.37 49.38 157.37 49.38 147.54 39.51 147.54 29.63 147.54 19.75 147.54 9.88 147.54 0 147.54 0 157.37 0 167.21 0 177.05 0 186.88 0 196.72 0 206.55 0 216.39 9.88 216.39 19.75 216.39 29.63 216.39 39.51 216.39 49.38 216.39 59.26 216.39 69.14 216.39 79.01 216.39 88.89 216.39 98.77 216.39 108.64 216.39 118.52 216.39 128.4 216.39 138.27 216.39 148.15 216.39 158.02 216.39 167.9 216.39 177.78 216.39 187.65 216.39 197.53 216.39 207.41 216.39 217.28 216.39 227.16 216.39 237.04 216.39 246.91 216.39 256.79 216.39 266.67 216.39 276.54 216.39 286.42 216.39 296.3 216.39 306.17 216.39 316.05 216.39 325.93 216.39 335.8 216.39 345.68 216.39 355.56 216.39 365.43 216.39 375.31 216.39 385.19 216.39 395.06 216.39 404.94 216.39 414.81 216.39 424.69 216.39 434.57 216.39 444.44 216.39 454.32 216.39 464.2 216.39 474.07 216.39 483.95 216.39 493.83 216.39 503.7 216.39 513.58 216.39 523.46 216.39 533.33 216.39 543.21 216.39 553.09 216.39 562.96 216.39 572.84 216.39 582.72 216.39 592.59 216.39 602.47 216.39 612.35 216.39 622.22 216.39 632.1 216.39 641.98 216.39 651.85 216.39 661.73 216.39 671.6 216.39 681.48 216.39 691.36 216.39 701.23 216.39 711.11 216.39 720.99 216.39 730.86 216.39 740.74 216.39 750.62 216.39 760.49 216.39 770.37 216.39 780.25 216.39 790.12 216.39 800 216.39 800 206.55 790.12 206.55"/><polygon class="cls-4" points="375.31 157.37 385.19 157.37 385.19 147.54 375.31 147.54 365.43 147.54 355.56 147.54 355.56 157.37 365.43 157.37 375.31 157.37"/><polygon class="cls-4" points="158.02 59.01 158.02 68.85 158.02 78.69 167.9 78.69 167.9 88.52 177.78 88.52 177.78 98.36 187.65 98.36 197.53 98.36 197.53 88.52 207.41 88.52 217.28 88.52 227.16 88.52 227.16 78.69 237.04 78.69 237.04 68.85 237.04 59.01 237.04 49.18 227.16 49.18 227.16 39.34 227.16 29.5 217.28 29.5 207.41 29.5 207.41 19.67 197.53 19.67 187.65 19.67 177.78 19.67 167.9 19.67 167.9 9.83 158.02 9.83 158.02 19.67 148.15 19.67 148.15 29.5 148.15 39.34 138.27 39.34 138.27 49.18 138.27 59.01 148.15 59.01 158.02 59.01"/><polygon class="cls-4" points="59.26 98.36 69.14 98.36 69.14 108.19 79.01 108.19 88.89 108.19 88.89 98.36 88.89 88.52 79.01 88.52 79.01 78.69 69.14 78.69 69.14 68.85 69.14 59.01 79.01 59.01 79.01 49.18 69.14 49.18 59.26 49.18 59.26 59.01 49.38 59.01 49.38 68.85 49.38 78.69 49.38 88.52 59.26 88.52 59.26 98.36"/><rect class="cls-2" y="137.7" width="9.88" height="9.84"/><rect class="cls-3" y="98.36" width="9.88" height="9.83"/><rect class="cls-3" y="88.52" width="9.88" height="9.84"/><rect class="cls-3" y="78.69" width="9.88" height="9.83"/></g></g></svg>