<svg xmlns="http://www.w3.org/2000/svg" viewBox="0 0 316.05 236.07"><defs><style>.cls-1{fill:#1a1a1a;}</style></defs><title>title</title><g id="Layer_2" data-name="Layer 2"><g id="Layer_6" data-name="Layer 6"><polygon class="cls-1" points="217.29 78.69 217.29 68.85 207.41 68.85 197.53 68.85 197.53 78.69 207.41 78.69 207.41 88.52 217.29 88.52 227.16 88.52 237.04 88.52 237.04 78.69 227.16 78.69 217.29 78.69"/><polygon class="cls-1" points="197.53 39.34 197.53 49.18 207.41 49.18 207.41 59.02 217.29 59.02 227.16 59.02 237.04 59.02 237.04 68.85 237.04 78.69 246.92 78.69 246.92 68.85 246.92 59.02 246.92 49.18 237.04 49.18 227.16 49.18 217.29 49.18 217.29 39.34 207.41 39.34 207.41 29.51 197.53 29.51 197.53 39.34"/><polygon class="cls-1" points="227.16 19.67 217.29 19.67 207.41 19.67 207.41 29.51 217.29 29.51 227.16 29.51 237.04 29.51 237.04 39.34 246.92 39.34 246.92 29.51 246.92 19.67 237.04 19.67 227.16 19.67"/><polygon class="cls-1" points="148.15 88.52 158.03 88.52 167.9 88.52 177.78 88.52 177.78 78.69 167.9 78.69 158.03 78.69 158.03 68.85 148.15 68.85 138.27 68.85 138.27 78.69 148.15 78.69 148.15 88.52"/><polygon class="cls-1" points="187.66 68.85 187.66 59.02 187.66 49.18 177.78 49.18 167.9 49.18 158.03 49.18 158.03 39.34 148.15 39.34 148.15 29.51 138.27 29.51 138.27 39.34 138.27 49.18 148.15 49.18 148.15 59.02 158.03 59.02 167.9 59.02 177.78 59.02 177.78 68.85 177.78 78.69 187.66 78.69 187.66 68.85"/><polygon class="cls-1" points="167.9 29.51 177.78 29.51 177.78 39.34 187.66 39.34 187.66 29.51 187.66 19.67 177.78 19.67 167.9 19.67 158.03 19.67 148.15 19.67 148.15 29.51 158.03 29.51 167.9 29.51"/><path class="cls-1" d="M49.39,0H0V9.84H9.88V78.69H0v9.83H29.63V78.69H19.76V59H49.39V49.18h9.87V9.84H49.39Zm0,19.67V39.34H39.51v9.84H19.76V9.84H39.51v9.83Z"/><polygon class="cls-1" points="167.9 206.56 167.9 216.39 177.78 216.39 177.78 206.56 177.78 196.72 167.9 196.72 167.9 206.56"/><polygon class="cls-1" points="79.02 59.02 69.14 59.02 69.14 68.85 69.14 78.69 79.02 78.69 79.02 68.85 79.02 59.02"/><polygon class="cls-1" points="9.88 206.56 0 206.56 0 216.39 0 226.23 9.88 226.23 9.88 216.39 9.88 206.56"/><polygon class="cls-1" points="49.39 216.39 49.39 206.56 49.39 196.72 49.39 186.89 49.39 177.05 39.51 177.05 39.51 167.21 29.63 167.21 19.76 167.21 9.88 167.21 9.88 177.05 0 177.05 0 186.89 9.88 186.89 19.76 186.89 19.76 177.05 29.63 177.05 29.63 186.89 39.51 186.89 39.51 196.72 29.63 196.72 19.76 196.72 9.88 196.72 9.88 206.56 19.76 206.56 29.63 206.56 39.51 206.56 39.51 216.39 39.51 226.23 29.63 226.23 19.76 226.23 9.88 226.23 9.88 236.07 19.76 236.07 29.63 236.07 39.51 236.07 49.39 236.07 59.26 236.07 59.26 226.23 49.39 226.23 49.39 216.39"/><polygon class="cls-1" points="148.15 216.39 148.15 226.23 138.27 226.23 128.4 226.23 128.4 216.39 118.52 216.39 118.52 206.56 118.52 196.72 128.4 196.72 128.4 186.89 138.27 186.89 148.15 186.89 148.15 196.72 158.03 196.72 167.9 196.72 167.9 186.89 158.03 186.89 158.03 177.05 148.15 177.05 138.27 177.05 128.4 177.05 118.52 177.05 118.52 167.21 118.52 157.38 118.52 147.54 108.64 147.54 98.77 147.54 98.77 157.38 108.64 157.38 108.64 167.21 108.64 177.05 108.64 186.89 108.64 196.72 108.64 206.56 108.64 216.39 108.64 226.23 98.77 226.23 98.77 236.07 108.64 236.07 118.52 236.07 128.4 236.07 138.27 236.07 148.15 236.07 158.03 236.07 158.03 226.23 167.9 226.23 167.9 216.39 158.03 216.39 148.15 216.39"/><polygon class="cls-1" points="187.66 157.38 187.66 167.21 197.53 167.21 197.53 157.38 197.53 147.54 187.66 147.54 187.66 157.38"/><polygon class="cls-1" points="197.53 216.39 197.53 206.56 197.53 196.72 197.53 186.89 197.53 177.05 187.66 177.05 177.78 177.05 177.78 186.89 187.66 186.89 187.66 196.72 187.66 206.56 187.66 216.39 187.66 226.23 187.66 236.07 197.53 236.07 207.41 236.07 207.41 226.23 197.53 226.23 197.53 216.39"/><rect class="cls-1" x="306.18" y="226.23" width="9.87" height="9.84"/><polygon class="cls-1" points="276.55 216.39 276.55 206.56 276.55 196.72 276.55 186.89 276.55 177.05 276.55 167.21 276.55 157.38 276.55 147.54 266.67 147.54 256.79 147.54 256.79 157.38 266.67 157.38 266.67 167.21 266.67 177.05 266.67 186.89 266.67 196.72 266.67 206.56 266.67 216.39 266.67 226.23 256.79 226.23 256.79 236.07 266.67 236.07 276.55 236.07 286.42 236.07 286.42 226.23 276.55 226.23 276.55 216.39"/><polygon class="cls-1" points="237.04 216.39 237.04 206.56 237.04 196.72 237.04 186.89 237.04 177.05 237.04 167.21 237.04 157.38 237.04 147.54 227.16 147.54 217.29 147.54 217.29 157.38 227.16 157.38 227.16 167.21 227.16 177.05 227.16 186.89 227.16 196.72 227.16 206.56 227.16 216.39 227.16 226.23 217.29 226.23 217.29 236.07 227.16 236.07 237.04 236.07 246.92 236.07 246.92 226.23 237.04 226.23 237.04 216.39"/><polygon class="cls-1" points="108.64 88.52 118.52 88.52 128.4 88.52 128.4 78.69 118.52 78.69 118.52 68.85 118.52 59.02 118.52 49.18 118.52 39.34 118.52 29.51 108.64 29.51 108.64 19.67 98.77 19.67 88.89 19.67 79.02 19.67 79.02 29.51 69.14 29.51 69.14 39.34 79.02 39.34 88.89 39.34 88.89 29.51 98.77 29.51 98.77 39.34 108.64 39.34 108.64 49.18 98.77 49.18 88.89 49.18 79.02 49.18 79.02 59.02 88.89 59.02 98.77 59.02 108.64 59.02 108.64 68.85 108.64 78.69 98.77 78.69 88.89 78.69 79.02 78.69 79.02 88.52 88.89 88.52 98.77 88.52 108.64 88.52"/></g></g></svg>